<?xml version="1.0" encoding="UTF-8" standalone="no"?>
<svg width="161px" height="55px" viewBox="0 0 161 55" version="1.1" xmlns="http://www.w3.org/2000/svg" xmlns:xlink="http://www.w3.org/1999/xlink" xmlns:sketch="http://www.bohemiancoding.com/sketch/ns">
    <!-- Generator: Sketch 3.3 (11970) - http://www.bohemiancoding.com/sketch -->
    <title>1-hero-playstore-button</title>
    <desc>Created with Sketch.</desc>
    <defs>
        <linearGradient x1="58.9170878%" y1="9.59026547%" x2="90.8103723%" y2="60.8514694%" id="linearGradient-1">
            <stop stop-color="#FF177B" offset="0%"></stop>
            <stop stop-color="#FFEC73" offset="100%"></stop>
        </linearGradient>
        <linearGradient x1="37.1029741%" y1="-44.0352456%" x2="0%" y2="101.060094%" id="linearGradient-2">
            <stop stop-color="#064AA2" offset="0%"></stop>
            <stop stop-color="#63FFD4" offset="100%"></stop>
        </linearGradient>
        <path id="path-3" d="M15.0649127,13.847104 L0.541903336,0 C0.203081802,0.079177834 0,0.334143703 0,0.763226207 L0,13.847104 L0,27.2580788 C0,27.6221232 0.145877297,27.8387207 0.325142001,27.9122727 L15.0649127,13.847104 Z"></path>
        <path id="path-5" d="M0.599818773,13.932716 L8.99412659,9.29370576 C11.0612465,8.14139815 12.7017645,7.22689007 12.7017645,7.22689007 L18.8062349,3.91913075 L14.7421583,-0.0536477315 L0.00255957781,14.0132712 C0.16684602,14.0664256 0.456405733,14.0373713 0.682308594,13.9252059"></path>
        <linearGradient x1="78.6453125%" y1="50%" x2="2.49516972%" y2="100%" id="linearGradient-7">
            <stop stop-color="#FF4521" offset="0%"></stop>
            <stop stop-color="#8A33DB" offset="100%"></stop>
        </linearGradient>
        <linearGradient x1="0%" y1="-24.1863374%" x2="64.2244373%" y2="100%" id="linearGradient-8">
            <stop stop-color="#00A3B5" offset="0%"></stop>
            <stop stop-color="#D6FFA1" offset="100%"></stop>
        </linearGradient>
        <path id="path-9" d="M0.772648359,0.125046356 C0.493068161,-0.0255901929 0.215283742,-0.0686819015 -0.00942533446,-0.00777857581 L14.5256416,13.8594687 L18.5468553,10.0311928 L12.4854529,6.6534308 C12.4854529,6.6534308 6.77238456,3.46909459 3.32280036,1.54632941 L0.772648359,0.125046356 Z"></path>
    </defs>
    <g id="spec" stroke="none" stroke-width="1" fill="none" fill-rule="evenodd" sketch:type="MSPage">
        <g id="HOME-1280" sketch:type="MSArtboardGroup" transform="translate(-330.000000, -641.000000)">
            <g id="app-buttons" sketch:type="MSLayerGroup" transform="translate(150.000000, 641.000000)">
                <g id="1-hero-playstore-button" transform="translate(180.000000, 0.436988)">
                    <g id="Play-Store">
                        <rect id="background" opacity="0.30701959" fill="#000000" sketch:type="MSShapeGroup" x="0" y="0" width="160.078245" height="54.5161577" rx="9.6"></rect>
                        <g id="icon" transform="translate(6.502840, 19.516784)">
                            <path d="M13.0251076,6.6534308 C13.0251076,6.6534308 1.98053302,0.497432469 1.33186798,0.135762137 C0.682123634,-0.225908196 0.0356172151,-0.00651658257 0.0356172151,0.749406995 L0.0356172151,13.8911818 L0.0356172151,27.3001366 C0.0356172151,27.8659932 0.497561702,28.1114511 1.0620406,27.797569 C1.62544018,27.483687 13.0251076,21.1289329 13.0251076,21.1289329 C13.0251076,21.1289329 14.5737326,20.2662275 15.3480451,19.8348748 C16.5942001,19.1406689 19.08651,17.752257 19.08651,17.752257 C19.08651,17.752257 24.22942,14.8849607 24.9137023,14.5048267 C25.5969052,14.1236066 25.5310674,13.6011939 24.9547161,13.300345 C24.3772854,13.0005822 19.08651,10.0311928 19.08651,10.0311928 L13.0251076,6.6534308 Z" id="orange" fill="url(#linearGradient-1)" sketch:type="MSShapeGroup"></path>
                            <g id="blue">
                                <mask id="mask-4" sketch:name="Clip 2" fill="white">
                                    <use xlink:href="#path-3"></use>
                                </mask>
                                <use id="Clip-2" fill="url(#linearGradient-2)" sketch:type="MSShapeGroup" xlink:href="#path-3"></use>
                                <path d="M19.0749974,10.030973 L13.0056801,6.65097124 C12.9844246,6.70015484 1.9441573,0.532849889 1.30056801,0.218064631 C0.646254285,-0.191819324 0,0.0279752417 0,0.763226207 L0,13.9561364 C0,13.9511993 0,26.8167981 0,27.3671112 C0,27.951678 0.461764331,28.1975867 0.975426004,27.9122727 C1.58920294,27.5686696 12.9844246,21.2022438 13.0056801,21.1522692 L19.0749974,17.7722674 C19.0434631,17.8193661 24.1843674,14.9468034 24.8191728,14.6103303 C25.5513193,14.184051 25.4855071,13.6606788 24.9275534,13.4109748 C24.3321751,13.058964 19.0434631,10.0841207 19.0749974,10.030973" id="Fill-1" sketch:type="MSShapeGroup" mask="url(#mask-4)"></path>
                            </g>
                            <g id="red" transform="translate(0.323343, 13.902043)">
                                <mask id="mask-6" sketch:name="Clip 8" fill="white">
                                    <use xlink:href="#path-5"></use>
                                </mask>
                                <g id="Clip-8"></g>
                                <path d="M12.6823369,-7.25107158 C12.6610814,-7.20188797 1.62081415,-13.3691929 0.977224853,-13.6839782 C0.322911133,-14.0938621 -0.323343152,-13.8740676 -0.323343152,-13.1388166 L-0.323343152,0.0540935518 C-0.323343152,0.0491565304 -0.323343152,12.9147553 -0.323343152,13.4650683 C-0.323343152,14.0496352 0.138421179,14.2955439 0.652082852,14.0102299 C1.26585979,13.6666268 12.6610814,7.30020103 12.6823369,7.25022636 L18.7516543,3.87022459 C18.7201199,3.91732328 23.8610242,1.04476063 24.4958296,0.708287444 C25.2279761,0.282008199 25.1621639,-0.24136401 24.6042103,-0.491068025 C24.008832,-0.843078837 18.7201199,-3.81792212 18.7516543,-3.8710698 L12.6823369,-7.25107158 Z" id="Fill-7" fill="url(#linearGradient-7)" sketch:type="MSShapeGroup" mask="url(#mask-6)"></path>
                            </g>
                            <g id="green" transform="translate(0.539655, 0.000000)">
                                <mask id="mask-10" sketch:name="Clip 5" fill="white">
                                    <use xlink:href="#path-9"></use>
                                </mask>
                                <use id="Clip-5" fill="url(#linearGradient-8)" sketch:type="MSShapeGroup" xlink:href="#path-9"></use>
                                <path d="M18.5353426,10.030973 L12.4660253,6.65097124 C12.4447698,6.70015484 1.40450253,0.532849889 0.760913231,0.218064631 C0.106599511,-0.191819324 -0.539654774,0.0279752417 -0.539654774,0.763226207 L-0.539654774,13.9561364 C-0.539654774,13.9511993 -0.539654774,26.8167981 -0.539654774,27.3671112 C-0.539654774,27.951678 -0.0778904432,28.1975867 0.43577123,27.9122727 C1.04954817,27.5686696 12.4447698,21.2022438 12.4660253,21.1522692 L18.5353426,17.7722674 C18.5038083,17.8193661 23.6447126,14.9468034 24.279518,14.6103303 C25.0116645,14.184051 24.9458523,13.6606788 24.3878987,13.4109748 C23.7925203,13.058964 18.5038083,10.0841207 18.5353426,10.030973" id="Fill-4" sketch:type="MSShapeGroup" mask="url(#mask-10)"></path>
                            </g>
                        </g>
                        <g id="Google-play" transform="translate(37.608091, 21.915495)" fill="#FFFFFF" sketch:type="MSShapeGroup">
                            <path d="M72.0314463,16.1225868 L70.8312716,17.2685783 C70.5539078,17.4228319 70.2780313,17.6019166 70.0028983,17.7290818 C69.1693197,18.1120822 68.3216126,18.2083967 67.5683431,18.2083967 C66.7667395,18.2083967 65.510051,18.1557247 64.22808,17.2174112 C62.4471516,15.9480168 61.6685996,13.7658925 61.6685996,11.8644345 C61.6685996,7.92758116 64.8356033,5.99677734 67.418879,5.99677734 C68.3216126,5.99677734 69.2488852,6.22552417 70.0028983,6.7078489 C71.2566124,7.54683809 71.5808231,8.6371478 71.760775,9.22105418 L65.861775,11.6326778 L63.9298953,11.7846741 C64.5552651,15.0127132 66.7132001,16.8900926 69.0979338,16.8900926 C70.2891853,16.8900926 71.1733289,16.4965577 71.9845994,16.0909836 C71.9845994,16.0909836 72.1474484,16.0052035 72.0314463,16.1225868 L72.0314463,16.1225868 Z M68.4271634,9.64691059 C68.9005937,9.46965102 69.1468656,9.31663207 69.1468656,8.96059787 C69.1468656,7.93946151 68.0257768,6.76000355 66.6878217,6.76000355 C65.6968527,6.76000355 63.8362129,7.55539909 63.8362129,10.3173154 C63.8362129,10.748344 63.8862025,11.2074009 63.9111972,11.6664577 L68.4271634,9.64691059 L68.4271634,9.64691059 Z" id="Fill-1"></path>
                            <path d="M59.7205786,15.9844798 C59.7205786,16.9685443 59.894012,17.121671 60.7159675,17.198985 C61.1443628,17.2500272 61.5712757,17.2725459 61.9937416,17.3235881 L61.0687636,17.8812997 L56.6610361,17.8812997 C57.2391473,17.121671 57.3384639,17.0458583 57.3384639,16.5399395 L57.3384639,15.9747217 L57.3288287,0.914256698 L55.3825209,0.914256698 L57.2561942,0 L60.8330721,0 C60.0578101,0.454876485 59.8258245,0.731855731 59.7265079,1.61833944 L59.7205786,15.9844798" id="Fill-2"></path>
                            <path d="M52.8820829,7.2395015 C53.4555469,7.71757899 54.6520517,8.73227407 54.6520517,10.6565922 C54.6520517,12.532127 53.6094572,13.4162326 52.5579833,14.2530559 C52.2353635,14.5825316 51.8579873,14.9397763 51.8579873,15.4921547 C51.8579873,16.0527887 52.2353635,16.3567469 52.5069265,16.5834022 L53.4089298,17.2896359 C54.5055409,18.2285291 55.505218,19.0893688 55.505218,20.8380667 C55.505218,23.2201984 53.2320809,25.6225941 48.9366508,25.6225941 C45.3182782,25.6225941 43.5690282,23.8746467 43.5690282,22.000613 C43.5690282,21.0887384 44.0167,19.7971036 45.4936472,18.9122475 C47.0416299,17.9523399 49.1386582,17.824002 50.2619076,17.7489506 C49.9111696,17.2896359 49.5108548,16.8085564 49.5108548,16.0235186 C49.5108548,15.5942246 49.6381268,15.3382993 49.760959,15.0365926 C49.4879162,15.0628606 49.2126535,15.0898791 48.9625492,15.0898791 C46.3142557,15.0898791 44.8173297,13.0860064 44.8173297,11.1114038 C44.8173297,9.9466059 45.3412168,8.6542206 46.4171092,7.71757899 C47.8407797,6.52876464 49.538233,6.32387429 50.8871683,6.32387429 L56.0328049,6.32387429 L54.4330254,7.2395015 L52.8820829,7.2395015 L52.8820829,7.2395015 Z M51.1253398,18.4539674 C50.9187134,18.4264613 50.7948867,18.4264613 50.5457415,18.4264613 C50.3174826,18.4264613 48.957627,18.4768891 47.9043543,18.8390522 C47.3471343,19.0476399 45.7366415,19.6642341 45.7366415,21.4956794 C45.7366415,23.3233044 47.4754366,24.6413033 50.1653101,24.6413033 C52.5821681,24.6413033 53.8651916,23.4547223 53.8651916,21.8570785 C53.8651916,20.5421359 53.0349561,19.8483719 51.1253398,18.4539674 L51.1253398,18.4539674 Z M51.8314515,13.5761897 C52.4061417,12.9933463 52.4562429,12.1882893 52.4562429,11.7311425 C52.4562429,9.91527496 51.390119,7.0871005 49.3234448,7.0871005 C48.6787603,7.0871005 47.9802908,7.4155578 47.5839019,7.92358173 C47.1631993,8.44956232 47.0372095,9.13191553 47.0372095,9.78808193 C47.0372095,11.4790011 48.0082885,14.2832333 50.1442202,14.2832333 C50.767538,14.2832333 51.4380098,13.9757255 51.8314515,13.5761897 L51.8314515,13.5761897 Z" id="Fill-3"></path>
                            <path d="M37.319459,18.2083967 C33.3418472,18.2083967 31.2136321,15.0517698 31.2136321,12.1936508 C31.2136321,8.85414059 33.8891025,5.99677734 37.6946774,5.99677734 C41.3734492,5.99677734 43.6774088,8.93197936 43.6774088,12.0137903 C43.6774088,15.0238083 41.4001445,18.2083967 37.319459,18.2083967 L37.319459,18.2083967 Z M40.4301557,16.1439128 C41.0373255,15.3254164 41.1846535,14.3038117 41.1846535,13.3079745 C41.1846535,11.0555937 40.1310352,6.76000355 37.0170576,6.76000355 C36.1888958,6.76000355 35.3547813,7.0896757 34.7535641,7.62776127 C33.7728658,8.5228022 33.5980068,9.64747684 33.5980068,10.7509312 C33.5980068,13.2776598 34.8242518,17.4451705 37.8675418,17.4451705 C38.8497283,17.4451705 39.852005,16.9608934 40.4301557,16.1439128 L40.4301557,16.1439128 Z" id="Fill-4"></path>
                            <path d="M23.9882135,18.2083967 C20.0082026,18.2083967 17.8828101,15.0517698 17.8828101,12.1936508 C17.8828101,8.85414059 20.560137,5.99677734 24.3658137,5.99677734 C28.0438927,5.99677734 30.3465868,8.93197936 30.3465868,12.0137903 C30.3465868,15.0238083 28.0713411,18.2083967 23.9882135,18.2083967 L23.9882135,18.2083967 Z M27.1004523,16.1439128 C27.7034534,15.3254164 27.8538314,14.3038117 27.8538314,13.3079745 C27.8538314,11.0555937 26.7967185,6.76000355 23.6841908,6.76000355 C22.8526449,6.76000355 22.0270545,7.0896757 21.4240535,7.62776127 C20.4413851,8.5228022 20.2671847,9.64747684 20.2671847,10.7509312 C20.2671847,13.2776598 21.4992425,17.4451705 24.5388145,17.4451705 C25.5192496,17.4451705 26.5205291,16.9608934 27.1004523,16.1439128 L27.1004523,16.1439128 Z" id="Fill-5"></path>
                            <path d="M16.2327128,17.4539376 L12.8635889,18.2350963 C11.4985129,18.4530063 10.2726999,18.6445259 8.97464888,18.6445259 C2.47620177,18.6445259 0,13.8014932 0,10.0110642 C0,5.38217153 3.50838693,1.09032315 9.51680674,1.09032315 C10.7880478,1.09032315 12.0108818,1.2795807 13.1249865,1.58721846 C14.8907231,2.08939186 15.7166202,2.70843746 16.2327128,3.07111825 L14.2755825,4.9531375 L13.4504301,5.140133 L14.0387608,4.19082922 C13.2419079,3.40288447 11.777039,1.94839122 8.99699055,1.94839122 C5.28008136,1.94839122 2.47620177,4.8091208 2.47620177,8.98560502 C2.47620177,13.471235 5.67776309,17.6906981 10.8126236,17.6906981 C12.3214311,17.6906981 13.0981765,17.3838143 13.8034285,17.0972889 L13.8034285,13.2518169 L10.2458899,13.4455986 L12.1315269,12.4201393 L17.1241454,12.4201393 L16.5134731,13.0150565 C16.3488895,13.1568111 16.3265478,13.205068 16.280375,13.3950796 C16.2557992,13.6122357 16.2327128,14.3029126 16.2327128,14.5457052 L16.2327128,17.4539376" id="Fill-6"></path>
                            <path d="M79.3023957,16.2392484 L79.3023957,22.6787216 L78.0340803,22.6787216 L78.0340803,6.2927159 L79.3023957,6.2927159 L79.3023957,8.15900186 C80.1286211,6.95277127 81.6384142,5.99677734 83.391914,5.99677734 C86.5370687,5.99677734 88.6553857,8.40249561 88.6553857,12.2107379 C88.6553857,15.993507 86.5370687,18.4494224 83.391914,18.4494224 C81.7364913,18.4494224 80.2534465,17.5885784 79.3023957,16.2392484 L79.3023957,16.2392484 Z M87.3548177,12.3089164 C87.3548177,9.40841677 85.8654855,7.19613281 83.2246617,7.19613281 C81.584681,7.19613281 80.0162956,8.50442394 79.3346483,9.64539312 L79.3346483,14.9459407 C80.0162956,16.0891812 81.584681,17.4451705 83.2246617,17.4451705 C85.8654855,17.4451705 87.3548177,15.2139587 87.3548177,12.3089164 L87.3548177,12.3089164 Z" id="Fill-7"></path>
                            <path d="M90.3894764,1.74451705 L91.6900444,1.74451705 L91.6900444,18.2083967 L90.3894764,18.2083967 L90.3894764,1.74451705 Z" id="Fill-8"></path>
                            <path d="M105.829741,21.544905 C106.100958,21.6670539 106.563884,21.7419919 106.857393,21.7419919 C107.633148,21.7419919 108.173353,21.4220067 108.658572,20.291942 L109.583682,18.1779415 L104.587344,6.21484197 L106.002131,6.21484197 L110.288103,16.5817625 L114.532464,6.21484197 L115.967314,6.21484197 L109.873475,20.6883639 C109.241131,22.1796297 108.246173,22.8967862 106.879685,22.8967862 C106.469516,22.8967862 105.928568,22.823347 105.612024,22.7251782 L105.829741,21.544905" id="Fill-9"></path>
                            <path d="M102.250386,18.1921522 C102.165195,17.7785326 102.100928,17.4138843 102.053849,17.1095085 C102.01499,16.8058861 101.992572,16.495483 101.992572,16.1798061 C101.555409,16.8269814 100.935908,17.3656663 100.144532,17.7898336 C99.3524081,18.2170146 98.5998904,18.4264613 97.5678876,18.4264613 C96.3251499,18.4264613 95.3604029,18.1183184 94.6721519,17.4929919 C93.9861428,16.8684187 93.6408964,16.0223443 93.6408964,14.9517551 C93.6408964,13.8826727 94.1408311,13.0147496 95.1377115,12.3509993 C96.1345919,11.6842355 97.422914,11.352737 99.0176237,11.352737 L101.992572,11.352737 L101.992572,9.87078843 C101.992572,9.01718 101.704119,8.34589569 101.127961,7.85919574 C100.549561,7.37174238 99.738008,7.12537878 98.6858284,7.12537878 C97.7240705,7.12537878 96.9439033,7.35064703 96.3498104,7.78912903 C95.7609485,8.2366519 95.4642758,8.79115835 95.4642758,9.45942902 L94.158766,9.45942902 L94.1318637,9.39538956 C94.0847846,8.49431658 94.4935504,7.70399421 95.3626448,7.02140882 C96.2280027,6.33957685 97.3616365,5.99677734 98.7568206,5.99677734 C100.147521,5.99677734 101.272935,6.33430301 102.121105,7.00784753 C102.968528,7.67461139 103.393734,8.63821703 103.393734,9.89791103 L103.393734,15.782008 C103.393734,16.2046685 103.413911,16.6130143 103.466221,17.0108124 C103.520026,17.4093639 103.605964,17.807162 103.720298,18.1921522 L102.250386,18.1921522 L102.250386,18.1921522 Z M97.7213527,17.3361381 C98.8039927,17.3361381 99.5820002,17.0907776 100.377181,16.6053574 C101.167135,16.1229664 101.704721,15.493662 101.986208,14.7318325 L101.986208,12.4296839 L98.9996146,12.4296839 C97.858736,12.4296839 96.9142259,12.6856465 96.1713108,13.2021154 C95.4269024,13.7170697 95.0498451,14.3403158 95.0498451,15.0650383 C95.0498451,15.7488673 95.2887725,16.2956276 95.7636408,16.7098628 C96.2400024,17.1286419 96.8910798,17.3361381 97.7213527,17.3361381 L97.7213527,17.3361381 Z" id="Fill-10"></path>
                        </g>
                        <g id="Get-it-on" transform="translate(37.174569, 8.722585)" fill="#FFFFFF" sketch:type="MSShapeGroup">
                            <path d="M0.00460303992,3.85004087 C0.00460303992,1.50147758 1.86883421,-0.00926143219 4.1869911,-0.00926143219 C5.7406415,-0.00926143219 6.75674828,0.684616385 7.38985522,1.53431973 L6.25504089,2.1499354 C5.82500599,1.59022127 5.07169832,1.15488806 4.1869911,1.15488806 C2.61019646,1.15488806 1.4387993,2.27291878 1.4387993,3.85004087 C1.4387993,5.40410357 2.61019646,6.54519368 4.1869911,6.54519368 C5.00002584,6.54519368 5.71675068,6.19860415 6.0751131,5.87437524 L6.0751131,4.72210483 L3.68528372,4.72210483 L3.68528372,3.56983442 L7.4615277,3.56983442 L7.4615277,6.35512845 C6.6850758,7.17198965 5.5614603,7.71982471 4.1869911,7.71982471 C1.86883421,7.71982471 0.00460303992,6.18812262 0.00460303992,3.85004087" id="Fill-1"></path>
                            <path d="M9.26926702,7.60616167 L9.26926702,0.104401599 L14.8054687,0.104401599 L14.8054687,1.26370703 L10.6868071,1.26370703 L10.6868071,3.19728798 L14.7207038,3.19728798 L14.7207038,4.3558908 L10.6868071,4.3558908 L10.6868071,6.44755885 L14.8054687,6.44755885 L14.8054687,7.60616167 L9.26926702,7.60616167" id="Fill-2"></path>
                            <path d="M18.5704586,7.60616167 L18.5704586,1.26370703 L16.1612731,1.26370703 L16.1612731,0.104401599 L22.375377,0.104401599 L22.375377,1.26370703 L19.9661915,1.26370703 L19.9661915,7.60616167 L18.5704586,7.60616167" id="Fill-3"></path>
                            <path d="M27.3466601,0.104401599 L28.7024646,0.104401599 L28.7024646,7.60616167 L27.3466601,7.60616167 L27.3466601,0.104401599 Z" id="Fill-4"></path>
                            <path d="M32.5811835,7.60616167 L32.5811835,1.26370703 L30.1712528,1.26370703 L30.1712528,0.104401599 L36.3853567,0.104401599 L36.3853567,1.26370703 L33.9769164,1.26370703 L33.9769164,7.60616167 L32.5811835,7.60616167" id="Fill-5"></path>
                            <path d="M41.0176887,3.85563153 C41.0176887,1.62612782 42.7228557,-0.00926143219 45.1419717,-0.00926143219 C47.5474887,-0.00926143219 49.2654993,1.62612782 49.2654993,3.85563153 C49.2654993,6.08443545 47.5474887,7.71982471 45.1419717,7.71982471 C42.7228557,7.71982471 41.0176887,6.08443545 41.0176887,3.85563153 L41.0176887,3.85563153 Z M47.7967111,3.79845012 C47.7967111,2.26865534 46.7519272,1.12736888 45.1419693,1.12736888 C43.5200023,1.12736888 42.4864769,2.26865534 42.4864769,3.79845012 C42.4864769,5.31647192 43.5200023,6.46953136 45.1419693,6.46953136 C46.7519272,6.46953136 47.7967111,5.31647192 47.7967111,3.79845012 L47.7967111,3.79845012 Z" id="Fill-6"></path>
                            <path d="M56.3917158,7.60616167 L52.2417627,2.24173925 L52.2417627,7.60616167 L50.8472712,7.60616167 L50.8472712,0.104401599 L52.2782638,0.104401599 L56.3440409,5.30090038 L56.3440409,0.104401599 L57.7392773,0.104401599 L57.7392773,7.60616167 L56.3917158,7.60616167" id="Fill-7"></path>
                        </g>
                    </g>
                </g>
            </g>
        </g>
    </g>
</svg>