<?xml version="1.0" encoding="UTF-8" standalone="no"?>
<svg width="160px" height="55px" viewBox="0 0 160 55" version="1.1" xmlns="http://www.w3.org/2000/svg" xmlns:xlink="http://www.w3.org/1999/xlink" xmlns:sketch="http://www.bohemiancoding.com/sketch/ns">
    <!-- Generator: Sketch 3.3 (11970) - http://www.bohemiancoding.com/sketch -->
    <title>1-hero-appstore-button@3x</title>
    <desc>Created with Sketch.</desc>
    <defs></defs>
    <g id="spec" stroke="none" stroke-width="1" fill="none" fill-rule="evenodd" sketch:type="MSPage">
        <g id="HOME-1280" sketch:type="MSArtboardGroup" transform="translate(-150.000000, -641.000000)">
            <g id="app-buttons" sketch:type="MSLayerGroup" transform="translate(150.000000, 641.000000)">
                <g id="1-hero-appstore-button" transform="translate(0.000000, 0.436988)" sketch:type="MSShapeGroup">
                    <rect id="background" opacity="0.305911847" fill="#000000" x="0" y="0" width="160.078245" height="54.5161577" rx="9.6"></rect>
                    <g id="icon" transform="translate(14.262403, 9.594844)" fill="#FFFFFF">
                        <path d="M20.9407752,16.4152763 C20.9057386,12.515695 24.129105,10.618536 24.2765004,10.5302116 C22.4509731,7.86475157 19.6214663,7.5005648 18.627152,7.47152665 C16.2507046,7.22107262 13.9455385,8.89560583 12.7349638,8.89560583 C11.500226,8.89560583 9.63603771,7.49572511 7.62687041,7.53686248 C5.04141159,7.57678994 2.62267861,9.07588433 1.29612076,11.4037759 C-1.44156601,16.1503032 0.600221565,23.1255083 3.2231333,26.9621737 C4.53519325,28.8423937 6.06834617,30.93919 8.07509715,30.8653847 C10.0383544,30.7855298 10.7717065,29.6119047 13.140905,29.6119047 C15.4883567,29.6119047 16.1770069,30.8653847 18.2236271,30.8169878 C20.3306553,30.7855298 21.6572131,28.9307181 22.923363,27.0335591 C24.4396017,24.8823163 25.0485135,22.7589017 25.0726767,22.6500087 C25.0243504,22.6342797 20.9818526,21.0892082 20.9407752,16.4152763" id="Fill-2"></path>
                        <path d="M17.0746686,4.94762761 C18.1305989,3.62518195 18.8530776,1.82602669 18.6525233,0.00025312536 C17.124203,0.0680088043 15.2128966,1.05893561 14.1122643,2.35234312 C13.1384887,3.49209044 12.2686147,5.3602113 12.4933322,7.11701926 C14.2101252,7.24527108 15.9728282,6.24950458 17.0746686,4.94762761" id="Fill-3"></path>
                    </g>
                    <g id="App-Store" transform="translate(50.081721, 23.878077)" fill="#FFFFFF">
                        <path d="M13.55788,16.3123386 L10.8141524,16.3123386 L9.31120345,11.5827502 L4.08712683,11.5827502 L2.65545921,16.3123386 L-0.0157788586,16.3123386 L5.16117958,0.210685494 L8.35796653,0.210685494 L13.55788,16.3123386 L13.55788,16.3123386 Z M8.85814407,9.5984768 L7.49896595,5.39520486 C7.35519511,4.96447233 7.08456765,3.95297683 6.68829171,2.36071838 L6.63996538,2.36071838 C6.48048848,3.0455347 6.22556707,4.0570302 5.87640932,5.39520486 L4.5401862,9.5984768 L8.85814407,9.5984768 L8.85814407,9.5984768 Z" id="Fill-4"></path>
                        <path d="M26.8452053,10.364358 C26.8452053,12.338952 26.3099911,13.8997525 25.2383547,15.0455494 C24.279077,16.0655144 23.0866247,16.5748919 21.6646224,16.5748919 C20.1290531,16.5748919 19.0247964,16.0267968 18.3542685,14.926977 L18.3542685,21.0189385 L15.778475,21.0189385 L15.778475,8.5180157 C15.778475,7.27784479 15.7458547,6.00621589 15.6830305,4.70191907 L17.9483273,4.70191907 L18.0920982,6.54342163 L18.1404245,6.54342163 C18.9994251,5.15564013 20.3030279,4.46235435 22.0524412,4.46235435 C23.4200764,4.46235435 24.561786,5.00318986 25.4751537,6.0860708 C26.3873133,7.17137158 26.8452053,8.59666069 26.8452053,10.364358 L26.8452053,10.364358 Z M24.2210854,10.4587319 C24.2210854,9.328664 23.9673721,8.39702342 23.4575293,7.66381018 C22.9005683,6.90034887 22.1527183,6.51680333 21.2151875,6.51680333 C20.5796962,6.51680333 20.0021965,6.72974975 19.4863129,7.15080289 C18.9692211,7.57306596 18.6309368,8.1260007 18.4726681,8.81202695 C18.3929296,9.13023666 18.3530604,9.39037007 18.3530604,9.59605695 L18.3530604,11.5343533 C18.3530604,12.3764596 18.6116063,13.0891042 19.128698,13.672287 C19.6457898,14.25305 20.3175258,14.5446414 21.1439061,14.5446414 C22.1140573,14.5446414 22.8691562,14.1683554 23.409203,13.421833 C23.9504579,12.6728907 24.2210854,11.6855937 24.2210854,10.4587319 L24.2210854,10.4587319 Z" id="Fill-5"></path>
                        <path d="M40.1796488,10.364358 C40.1796488,12.338952 39.6444346,13.8997525 38.5727982,15.0455494 C37.6123123,16.0655144 36.4210682,16.5748919 34.9978577,16.5748919 C33.4634966,16.5748919 32.3592399,16.0267968 31.6875039,14.926977 L31.6875039,21.0189385 L29.1117103,21.0189385 L29.1117103,8.5180157 C29.1117103,7.27784479 29.07909,6.00621589 29.0162658,4.70191907 L31.2815627,4.70191907 L31.4253335,6.54342163 L31.4736599,6.54342163 C32.3314523,5.15564013 33.6350551,4.46235435 35.3856765,4.46235435 C36.7521036,4.46235435 37.8950214,5.00318986 38.8095972,6.0860708 C39.7205486,7.17137158 40.1796488,8.59666069 40.1796488,10.364358 L40.1796488,10.364358 Z M37.5543207,10.4587319 C37.5543207,9.328664 37.2993993,8.39702342 36.7895565,7.66381018 C36.2338037,6.90034887 35.4871618,6.51680333 34.549631,6.51680333 C33.9141397,6.51680333 33.33664,6.72974975 32.8183401,7.15080289 C32.3024565,7.57306596 31.9641721,8.1260007 31.8059034,8.81202695 C31.7273731,9.13023666 31.6850876,9.39037007 31.6850876,9.59605695 L31.6850876,11.5343533 C31.6850876,12.3764596 31.9448416,13.0891042 32.459517,13.672287 C32.9766088,14.25184 33.6483448,14.5446414 34.4771415,14.5446414 C35.4485008,14.5446414 36.2035997,14.1683554 36.7424383,13.421833 C37.2836933,12.6728907 37.5543207,11.6855937 37.5543207,10.4587319 L37.5543207,10.4587319 Z" id="Fill-6"></path>
                        <path d="M55.0883226,11.7969066 C55.0883226,13.1665392 54.6111,14.2808782 53.6590713,15.1411333 C52.6128061,16.0800334 51.1521427,16.5506934 49.2794973,16.5506934 C47.5494146,16.5506934 46.1624488,16.2167547 45.1161837,15.5476674 L45.7118058,13.3976345 C46.8414338,14.0667218 48.0822124,14.4018705 49.4329334,14.4018705 C50.4042927,14.4018705 51.1593917,14.1816645 51.6982303,13.7448824 C52.2394852,13.3056804 52.5113208,12.7212876 52.5113208,11.9904942 C52.5113208,11.335926 52.2866034,10.786621 51.8420011,10.3401595 C51.3961907,9.89611781 50.6592141,9.47990436 49.6250306,9.09998859 C46.8100217,8.04856564 45.4013091,6.50954379 45.4013091,4.48776273 C45.4013091,3.16652699 45.8990703,2.08485597 46.8909683,1.23911991 C47.8840744,0.394593765 49.200967,-0.0276693051 50.8392297,-0.0276693051 C52.3023095,-0.0276693051 53.5213412,0.227624414 54.489076,0.737001929 L53.8427113,2.83984782 C52.9317599,2.3461993 51.9036172,2.09937504 50.7534505,2.09937504 C49.8449154,2.09937504 49.1308938,2.32321077 48.6222592,2.76846237 C48.193363,3.16652699 47.9746863,3.65170605 47.9746863,4.22762932 C47.9746863,4.86283881 48.2223588,5.39036516 48.7164955,5.80294885 C49.1441836,6.18528447 49.9246539,6.600288 51.0530737,7.04553961 C52.4376232,7.60452396 53.4536843,8.25546244 54.1060898,9.00319476 C54.7621198,9.75092707 55.0883226,10.6837776 55.0883226,11.7969066" id="Fill-7"></path>
                        <path d="M63.6263775,6.63779561 L60.7872054,6.63779561 L60.7872054,12.2748261 C60.7872054,13.7085847 61.287383,14.4236491 62.2901544,14.4236491 C62.7504627,14.4236491 63.1322407,14.3849315 63.4342803,14.3038667 L63.5055617,16.2627318 C62.9981352,16.4526897 62.3300236,16.5482736 61.5036433,16.5482736 C60.4851658,16.5482736 59.6914058,16.2361135 59.1163224,15.6154231 C58.5436554,14.9935227 58.2573219,13.9517792 58.2573219,12.4853527 L58.2573219,6.63295592 L56.5671084,6.63295592 L56.5671084,4.69707938 L58.2573219,4.69707938 L58.2573219,2.57124495 L60.7872054,1.80657372 L60.7872054,4.69707938 L63.6263775,4.69707938 L63.6263775,6.63779561" id="Fill-8"></path>
                        <path d="M76.4111089,10.4115449 C76.4111089,12.1961811 75.9024743,13.6613977 74.8839968,14.8071946 C73.8196093,15.9856595 72.4036477,16.5748919 70.6385284,16.5748919 C68.9350252,16.5748919 67.5806797,16.0098579 66.5706593,14.87979 C65.560639,13.7497221 65.0556288,12.3244329 65.0556288,10.6051326 C65.0556288,8.80597734 65.5787613,7.33229132 66.6177775,6.18649439 C67.65921,5.04069746 69.06309,4.46598412 70.8282093,4.46598412 C72.5305044,4.46598412 73.8957233,5.03343793 74.931115,6.16229593 C75.9193885,7.25969595 76.4111089,8.67409575 76.4111089,10.4115449 L76.4111089,10.4115449 Z M73.741079,10.4708312 C73.741079,9.40730899 73.5115289,8.49502717 73.0512206,7.73156586 C72.5111738,6.80960465 71.7367444,6.34983397 70.7363893,6.34983397 C69.7058302,6.34983397 68.9120702,6.80960465 68.3744397,7.73156586 C67.9117151,8.49502717 67.6833732,9.42303798 67.6833732,10.5192281 C67.6833732,11.5839602 67.9117151,12.4986618 68.3744397,13.2584934 C68.9314007,14.1816645 69.7082465,14.6426451 70.7158506,14.6426451 C71.6992914,14.6426451 72.4713046,14.1707752 73.0306819,13.2367148 C73.5030718,12.4551046 73.741079,11.5367732 73.741079,10.4708312 L73.741079,10.4708312 Z" id="Fill-9"></path>
                        <path d="M84.7872706,6.97052439 C84.5323492,6.9233374 84.2593054,6.90034887 83.9753882,6.90034887 C83.0692695,6.90034887 82.3685377,7.24033718 81.8756091,7.92757336 C81.4467128,8.53253477 81.2328688,9.29720601 81.2328688,10.2203771 L81.2328688,16.3123386 L78.6570753,16.3123386 L78.6570753,8.35830589 C78.6570753,7.02134115 78.6317039,5.80052901 78.5821694,4.70312899 L80.8257195,4.70312899 L80.9199558,6.92454732 L80.9912372,6.92454732 C81.2642809,6.16108601 81.691969,5.54523529 82.2791339,5.08546461 C82.8542173,4.66925115 83.4727944,4.46235435 84.1409059,4.46235435 C84.3789131,4.46235435 84.5939653,4.48050319 84.7848543,4.50954134 L84.7872706,6.97052439" id="Fill-10"></path>
                        <path d="M96.3070603,9.95782388 C96.3070603,10.4200144 96.2768563,10.8096096 96.212824,11.1278193 L88.4866514,11.1278193 C88.5144391,12.2748261 88.8901763,13.1532301 89.6066142,13.7581915 C90.2578115,14.2978171 91.1011061,14.5688398 92.1340814,14.5688398 C93.2782074,14.5688398 94.3220562,14.3873514 95.2607952,14.0195348 L95.6643201,15.8102206 C94.5673123,16.2881402 93.2709584,16.5277049 91.7776747,16.5277049 C89.9799351,16.5277049 88.5688062,15.9977587 87.5418716,14.9402861 C86.5185615,13.8816036 86.0038861,12.4575245 86.0038861,10.676518 C86.0038861,8.92696962 86.4799005,7.4690126 87.4367618,6.30627675 C88.4371169,5.06489592 89.7890461,4.4442055 91.490133,4.4442055 C93.161016,4.4442055 94.4259578,5.06489592 95.2837502,6.30627675 C95.9651515,7.28994402 96.3070603,8.50954624 96.3070603,9.95782388 L96.3070603,9.95782388 Z M93.8508744,9.28873655 C93.8689968,8.52285539 93.6998546,7.86465737 93.3506969,7.30567302 C92.9048864,6.58697885 92.2186525,6.22884169 91.299244,6.22884169 C90.4559495,6.22884169 89.7709237,6.57850939 89.2489993,7.28026464 C88.8201031,7.83803907 88.5651817,8.50954624 88.4866514,9.2863167 L93.8508744,9.28873655 L93.8508744,9.28873655 Z" id="Fill-11"></path>
                    </g>
                    <g id="Available-on-the" transform="translate(51.061581, 10.030973)" fill="#FFFFFF">
                        <path d="M6.63629755,8.29492706 L5.2867847,8.29492706 L4.54859996,5.97066529 L1.98126351,5.97066529 L1.2769072,8.29492706 L-0.0363609032,8.29492706 L2.50802054,0.38082178 L4.07862637,0.38082178 L6.63629755,8.29492706 L6.63629755,8.29492706 Z M4.32629883,4.99546748 L3.65818727,2.92891928 C3.58811409,2.71718278 3.45884115,2.22474419 3.25949502,1.43829434 L3.23533185,1.43829434 C3.15317709,1.77828266 3.03598573,2.27193118 2.85959461,2.92891928 L2.20356464,4.99546748 L4.32629883,4.99546748 L4.32629883,4.99546748 Z" id="Fill-12"></path>
                        <path d="M12.9984593,2.58893096 L10.8406885,8.29492706 L9.6095752,8.29492706 L7.52187761,2.58893096 L8.88226389,2.58893096 L9.8560395,5.60647852 C10.020349,6.11101634 10.1604954,6.59256563 10.2656052,7.04991646 L10.3006418,7.04991646 C10.3948781,6.63975262 10.5350245,6.15820333 10.7102074,5.60647852 L11.6719015,2.58893096 L12.9984593,2.58893096" id="Fill-13"></path>
                        <path d="M17.5918773,8.29492706 L17.4976409,7.63793896 L17.4626043,7.63793896 C17.0759937,8.16667524 16.5129919,8.42438881 15.7977622,8.42438881 C14.7780765,8.42438881 14.0507652,7.70811449 14.0507652,6.74501591 C14.0507652,5.33666572 15.269797,4.60829218 17.3804496,4.60829218 L17.3804496,4.50302889 C17.3804496,3.75166681 16.9817573,3.3753808 16.1964544,3.3753808 C15.6334526,3.3753808 15.140524,3.51694178 14.7080034,3.7988538 L14.4506656,2.96521696 C14.9786308,2.63611795 15.6346608,2.47156844 16.4090903,2.47156844 C17.8975413,2.47156844 18.6490158,3.25801829 18.6490158,4.8321279 L18.6490158,6.93376387 C18.6490158,7.50968714 18.673179,7.95614867 18.7311706,8.29613699 L17.5918773,8.29492706 L17.5918773,8.29492706 Z M17.4154862,5.45281832 C16.0079817,5.45281832 15.3048336,5.79401656 15.3048336,6.60345494 C15.3048336,7.20236674 15.6684892,7.49516807 16.1722913,7.49516807 C16.8174478,7.49516807 17.4154862,7.00272947 17.4154862,6.33364214 L17.4154862,5.45281832 L17.4154862,5.45281832 Z" id="Fill-14"></path>
                        <path d="M21.4688574,1.64882091 C21.0472101,1.64882091 20.718591,1.3197219 20.718591,0.885359603 C20.718591,0.450997304 21.0580835,0.133997521 21.4930205,0.133997521 C21.9267494,0.133997521 22.2783234,0.450997304 22.2662419,0.885359603 C22.2662419,1.34392036 21.938831,1.64882091 21.4688574,1.64882091 L21.4688574,1.64882091 Z M20.8599456,2.58893096 L22.1260955,2.58893096 L22.1260955,8.29492706 L20.8599456,8.29492706 L20.8599456,2.58893096 Z" id="Fill-15"></path>
                        <path d="M24.3756863,-0.0293420624 L25.6418362,-0.0293420624 L25.6418362,8.29492706 L24.3756863,8.29492706 L24.3756863,-0.0293420624 Z" id="Fill-16"></path>
                        <path d="M31.0229734,8.29492706 L30.9275289,7.63793896 L30.8937005,7.63793896 C30.5070898,8.16667524 29.9440881,8.42438881 29.2288583,8.42438881 C28.2091727,8.42438881 27.4818614,7.70811449 27.4818614,6.74501591 C27.4818614,5.33666572 28.7008931,4.60829218 30.8115457,4.60829218 L30.8115457,4.50302889 C30.8115457,3.75166681 30.4128535,3.3753808 29.6275506,3.3753808 C29.0645488,3.3753808 28.5716202,3.51694178 28.1390995,3.7988538 L27.8805536,2.96400704 C28.4085188,2.63490803 29.0645488,2.47035852 29.8389783,2.47035852 C31.3274293,2.47035852 32.080112,3.25680837 32.080112,4.83091798 L32.080112,6.93255395 C32.080112,7.50847722 32.1042751,7.95493875 32.1598504,8.29492706 L31.0229734,8.29492706 L31.0229734,8.29492706 Z M30.8465823,5.45281832 C29.4390779,5.45281832 28.7359297,5.79401656 28.7359297,6.60345494 C28.7359297,7.20236674 29.0995854,7.49516807 29.6033874,7.49516807 C30.248544,7.49516807 30.8465823,7.00272947 30.8465823,6.33364214 L30.8465823,5.45281832 L30.8465823,5.45281832 Z" id="Fill-17"></path>
                        <path d="M37.2087441,8.42438881 C36.4004862,8.42438881 35.803656,8.08319057 35.4158371,7.41410324 L35.391674,7.41410324 L35.3191845,8.29492706 L34.2415072,8.29492706 C34.2753357,7.83757623 34.2874172,7.31972926 34.2874172,6.75711514 L34.2874172,-0.0293420624 L35.5559835,-0.0293420624 L35.5559835,3.42377772 L35.5789385,3.42377772 C35.9546757,2.78977815 36.5635875,2.47277837 37.3960086,2.47277837 C38.7684765,2.47277837 39.7301705,3.64761344 39.7301705,5.36086418 C39.7301705,7.13219122 38.6621586,8.42438881 37.2087441,8.42438881 L37.2087441,8.42438881 Z M36.9514064,3.46854486 C36.2228869,3.46854486 35.5559835,4.10254443 35.5559835,4.98336826 L35.5559835,5.9815546 C35.5559835,6.76800444 36.15523,7.41410324 36.9284514,7.41410324 C37.8768556,7.41410324 38.4422737,6.63975262 38.4422737,5.40684125 C38.4410656,4.25620463 37.8539006,3.46854486 36.9514064,3.46854486 L36.9514064,3.46854486 Z" id="Fill-18"></path>
                        <path d="M41.6040241,-0.0293420624 L42.8689659,-0.0293420624 L42.8689659,8.29492706 L41.6040241,8.29492706 L41.6040241,-0.0293420624 Z" id="Fill-19"></path>
                        <path d="M49.760301,5.74682957 L45.9594349,5.74682957 C45.9848062,6.82729066 46.6976196,7.43709177 47.7523418,7.43709177 C48.3165518,7.43709177 48.8324354,7.34271779 49.2891192,7.16727898 L49.486049,8.04810281 C48.9472104,8.28282784 48.3141355,8.40019035 47.5759507,8.40019035 C45.792709,8.40019035 44.7379868,7.27254227 44.7379868,5.52420376 C44.7379868,3.77465534 45.8180803,2.45946922 47.4345962,2.45946922 C48.8868025,2.45946922 49.8037947,3.53993031 49.8037947,5.17211622 C49.8074192,5.39474202 49.7965457,5.59437929 49.760301,5.74682957 L49.760301,5.74682957 Z M48.600469,4.84301721 C48.600469,3.96219338 48.1534504,3.34029304 47.3439843,3.34029304 C46.616673,3.34029304 46.044006,3.97429261 45.9594349,4.84301721 L48.600469,4.84301721 L48.600469,4.84301721 Z" id="Fill-20"></path>
                        <path d="M57.4345227,8.42438881 C55.7696805,8.42438881 54.6907951,7.17937821 54.6907951,5.489116 C54.6907951,3.72746835 55.7926355,2.47156844 57.5299672,2.47156844 C59.1694381,2.47156844 60.2736948,3.65729283 60.2736948,5.39595194 C60.2736948,7.17937821 59.1356096,8.42438881 57.4345227,8.42438881 L57.4345227,8.42438881 Z M57.482849,3.39836934 C56.5682732,3.39836934 55.9823164,4.25499471 55.9823164,5.45281832 C55.9823164,6.62765339 56.5803548,7.48427876 57.4707674,7.48427876 C58.3611801,7.48427876 58.9592185,6.56836717 58.9592185,5.42861986 C58.9592185,4.26709394 58.3732617,3.39836934 57.482849,3.39836934 L57.482849,3.39836934 Z" id="Fill-21"></path>
                        <path d="M67.0804588,8.29492706 L65.8167252,8.29492706 L65.8167252,5.01845602 C65.8167252,4.00938037 65.4289064,3.50363263 64.6665585,3.50363263 C63.9162921,3.50363263 63.3992004,4.14973142 63.3992004,4.9010935 L63.3992004,8.29492706 L62.1354668,8.29492706 L62.1354668,4.21990695 C62.1354668,3.71536912 62.1209689,3.17453361 62.0871404,2.58772104 L63.2010624,2.58772104 L63.2602622,3.46854486 L63.2965069,3.46854486 C63.6335831,2.85874375 64.327066,2.47035852 65.1014955,2.47035852 C66.2951559,2.47035852 67.0804588,3.38627011 67.0804588,4.87689505 L67.0804588,8.29492706" id="Fill-22"></path>
                        <path d="M75.3648005,3.53993031 L73.9717939,3.53993031 L73.9717939,6.31065361 C73.9717939,7.01603862 74.21705,7.36812617 74.7087705,7.36812617 C74.9310716,7.36812617 75.1207525,7.34392771 75.2717723,7.30883995 L75.3068089,8.27193853 C75.0603446,8.36631251 74.7305173,8.4134995 74.323368,8.4134995 C73.324221,8.4134995 72.7298071,7.86177469 72.7298071,6.41712682 L72.7298071,3.53993031 L71.8998024,3.53993031 L71.8998024,2.58893096 L72.7298071,2.58893096 L72.7298071,1.54355763 L73.9717939,1.16727162 L73.9717939,2.58772104 L75.3648005,2.58772104 L75.3648005,3.53993031" id="Fill-23"></path>
                        <path d="M82.0700792,8.29492706 L80.8027211,8.29492706 L80.8027211,5.04265448 C80.8027211,4.0214796 80.4149023,3.50484255 79.6537625,3.50484255 C78.9977326,3.50484255 78.3888208,3.95130408 78.3888208,4.85511644 L78.3888208,8.29492706 L77.1214627,8.29492706 L77.1214627,-0.0293420624 L78.3888208,-0.0293420624 L78.3888208,3.39836934 L78.4129839,3.39836934 C78.810468,2.776469 79.3867595,2.47035852 80.1249443,2.47035852 C81.3318945,2.47035852 82.0700792,3.40925864 82.0700792,4.9010935 L82.0700792,8.29492706" id="Fill-24"></path>
                        <path d="M88.539767,5.74682957 L84.7401091,5.74682957 C84.7642723,6.82729066 85.4770857,7.43709177 86.5330161,7.43709177 C87.0984342,7.43709177 87.6131096,7.34271779 88.0673771,7.16727898 L88.2655151,8.04810281 C87.7278847,8.28282784 87.0936015,8.40019035 86.3542086,8.40019035 C84.5721751,8.40019035 83.5174529,7.27254227 83.5174529,5.52420376 C83.5174529,3.77465534 84.5963383,2.45946922 86.2128541,2.45946922 C87.6662686,2.45946922 88.5820526,3.53993031 88.5820526,5.17211622 C88.5868852,5.39474202 88.5748036,5.59437929 88.539767,5.74682957 L88.539767,5.74682957 Z M87.3787269,4.84301721 C87.3787269,3.96219338 86.9341246,3.34029304 86.1246585,3.34029304 C85.3973472,3.34029304 84.823472,3.97429261 84.7401091,4.84301721 L87.3787269,4.84301721 L87.3787269,4.84301721 Z" id="Fill-25"></path>
                    </g>
                </g>
            </g>
        </g>
    </g>
</svg>