<?xml version="1.0" encoding="UTF-8" standalone="no"?>
<svg width="120px" height="120px" viewBox="0 0 120 120" version="1.1" xmlns="http://www.w3.org/2000/svg" xmlns:xlink="http://www.w3.org/1999/xlink" xmlns:sketch="http://www.bohemiancoding.com/sketch/ns">
    <!-- Generator: Sketch 3.3 (11970) - http://www.bohemiancoding.com/sketch -->
    <title>icon 6</title>
    <desc>Created with Sketch.</desc>
    <defs>
        <rect id="path-1" x="0" y="0" width="120" height="120" rx="26"></rect>
        <linearGradient x1="50%" y1="0%" x2="50%" y2="97.9848582%" id="linearGradient-3">
            <stop stop-color="#26ECFF" offset="0%"></stop>
            <stop stop-color="#14FFCC" offset="100%"></stop>
        </linearGradient>
        <linearGradient x1="50%" y1="0%" x2="50%" y2="100%" id="linearGradient-4">
            <stop stop-color="#25EDFA" offset="0%"></stop>
            <stop stop-color="#16FECE" offset="100%"></stop>
        </linearGradient>
        <linearGradient x1="50%" y1="0%" x2="50%" y2="100%" id="linearGradient-5">
            <stop stop-color="#F93F43" offset="0%"></stop>
            <stop stop-color="#FF358B" offset="100%"></stop>
        </linearGradient>
    </defs>
    <g id="Layout" stroke="none" stroke-width="1" fill="none" fill-rule="evenodd" sketch:type="MSPage">
        <g id="Icon-60@2x" sketch:type="MSArtboardGroup">
            <g id="icon-6" sketch:type="MSLayerGroup">
                <mask id="mask-2" sketch:name="Mask 2" fill="white">
                    <use xlink:href="#path-1"></use>
                </mask>
                <use id="Mask-2" fill="#FFFFFF" sketch:type="MSShapeGroup" xlink:href="#path-1"></use>
                <g id="shape-right-5" mask="url(#mask-2)" fill="url(#linearGradient-3)" sketch:type="MSShapeGroup">
                    <g transform="translate(30.211697, 99.385212) rotate(-250.000000) translate(-30.211697, -99.385212) translate(25.211697, 89.385212)">
                        <path d="M3.97611129,0.36971843 C4.45522415,-0.123238244 5.23362859,-0.123238244 5.713152,0.36971843 C10.7850974,5.57970963 10.7850974,14.0573837 5.713152,19.2669532 C5.4733903,19.5132207 5.15890833,19.6363544 4.84442637,19.6363544 C4.53035496,19.6363544 4.21587299,19.5132207 3.97611129,19.2669532 C3.49617733,18.7744182 3.49617733,17.9757356 3.97611129,17.4832006 C8.09024151,13.2565927 8.09024151,6.38007898 3.97611129,2.15389267 C3.49617733,1.66135769 3.49617733,0.862253413 3.97611129,0.36971843 Z" id="Shape-38"></path>
                        <path d="M2.19931772,15.7889495 C1.959293,16.0437269 1.64446605,16.1711156 1.32963911,16.1711156 C1.01522316,16.1711156 0.700396219,16.0437269 0.460371499,15.7889495 C-0.0200889422,15.2793948 -0.0200889422,14.4531134 0.460371499,13.9435587 C2.60250992,11.6688855 2.60250992,7.96806977 0.459960498,5.69339653 C-0.0200889422,5.18384181 -0.0200889422,4.35712416 0.460371499,3.84756944 C0.94083194,3.33801471 1.71926828,3.33757845 2.19931772,3.84756944 C5.30114402,7.13960708 5.30114402,12.4964756 2.19931772,15.7889495 L2.19931772,15.7889495 Z" id="Shape-37"></path>
                    </g>
                </g>
                <g id="shape-right-6" mask="url(#mask-2)" fill="url(#linearGradient-3)" sketch:type="MSShapeGroup">
                    <g transform="translate(65.669194, 20.614788) rotate(-68.000000) translate(-65.669194, -20.614788) translate(60.669194, 10.614788)">
                        <path d="M3.97611129,0.36971843 C4.45522415,-0.123238244 5.23362859,-0.123238244 5.713152,0.36971843 C10.7850974,5.57970963 10.7850974,14.0573837 5.713152,19.2669532 C5.4733903,19.5132207 5.15890833,19.6363544 4.84442637,19.6363544 C4.53035496,19.6363544 4.21587299,19.5132207 3.97611129,19.2669532 C3.49617733,18.7744182 3.49617733,17.9757356 3.97611129,17.4832006 C8.09024151,13.2565927 8.09024151,6.38007898 3.97611129,2.15389267 C3.49617733,1.66135769 3.49617733,0.862253413 3.97611129,0.36971843 Z" id="Shape-38"></path>
                        <path d="M2.19931772,15.7889495 C1.959293,16.0437269 1.64446605,16.1711156 1.32963911,16.1711156 C1.01522316,16.1711156 0.700396219,16.0437269 0.460371499,15.7889495 C-0.0200889422,15.2793948 -0.0200889422,14.4531134 0.460371499,13.9435587 C2.60250992,11.6688855 2.60250992,7.96806977 0.459960498,5.69339653 C-0.0200889422,5.18384181 -0.0200889422,4.35712416 0.460371499,3.84756944 C0.94083194,3.33801471 1.71926828,3.33757845 2.19931772,3.84756944 C5.30114402,7.13960708 5.30114402,12.4964756 2.19931772,15.7889495 L2.19931772,15.7889495 Z" id="Shape-37"></path>
                    </g>
                </g>
                <g id="pager-2" mask="url(#mask-2)" sketch:type="MSShapeGroup">
                    <g transform="translate(47.588542, 59.528320) rotate(-32.000000) translate(-47.588542, -59.528320) translate(17.088542, 37.528320)">
                        <rect id="Rectangle-16" fill="url(#linearGradient-4)" x="0.0143536348" y="0.0122176462" width="60.0701478" height="43.6258415" rx="7"></rect>
                        <rect id="Rectangle-17" fill="#FFFFFF" x="5.93960476" y="5.30951313" width="48.1675054" height="21.6904869" rx="2"></rect>
                        <path d="M32,35.5 L24,38 L24,33 L32,35.5 L32,35.5 Z" id="Triangle-5" fill="#FFFFFF"></path>
                        <path d="M7,35.5 L15,38 L15,33 L7,35.5 L7,35.5 Z" id="Triangle-6" fill="#FFFFFF"></path>
                        <ellipse id="Oval-27" fill="#FFFFFF" cx="42.7867965" cy="34.6713035" rx="2.22133264" ry="2.25"></ellipse>
                    </g>
                </g>
                <path d="M81.3249675,40.8360665 L86.0929826,40.4303681 L75.9643947,59.0201516 C75.8850412,59.1657515 75.8122276,59.3136743 75.7458597,59.4635044 L75.7458597,59.4635044 L68.9846954,71.0393544 L52.3600867,67.6701476 C49.9640568,67.1847262 47.6077109,68.550702 47.0979924,70.7224772 C46.5882739,72.8942525 48.1174295,75.0475818 50.5143412,75.533974 L70.1358593,79.510546 C71.4757295,79.7819957 72.8034658,79.4744961 73.8027826,78.7708892 C74.8489621,78.4701432 75.7997686,77.7510908 76.4335663,76.6654556 L80.4687531,69.7567762 L88.4304017,78.6823072 L85.8590569,97.3335898 C85.4913188,99.9975824 86.9428702,102.523715 89.1016782,102.976128 C91.2604861,103.428541 93.3081789,101.637336 93.6750351,98.9743141 L96.6821981,77.1682147 C96.7993667,76.3176845 96.7309549,75.4811178 96.5132497,74.7215843 L96.5132497,74.7215843 C96.3494618,73.7973564 95.9462931,72.9142442 95.3025985,72.1930895 L87.3897957,63.3230564 L87.3897957,63.3230564 L94.3516579,50.5459582 L94.7451819,53.7488538 C94.9118014,55.1013679 95.9498963,56.0431865 97.2236239,56.1337913 C97.4038682,56.1595832 97.5906795,56.1688328 97.7825523,56.1600387 L110.229189,55.5845927 C111.895739,55.5088719 113.313459,54.09934 113.396168,52.4380089 C113.479489,50.7773121 112.194496,49.4927832 110.528558,49.5691384 L100.376399,50.0385036 L100.376399,50.0385036 L99.1633519,40.1695385 C99.1628506,40.1654564 99.1623413,40.161378 99.1618241,40.1573034 L99.1618241,40.1573034 C99.1697473,38.198829 98.2687708,36.2856594 96.6362152,35.2034368 L95.4456961,34.4141416 C94.4225047,33.7358671 93.2728773,33.4907302 92.1721245,33.6304639 C91.9556368,33.5932719 91.7317994,33.582884 91.5037576,33.6022706 L79.6488332,34.6109762 C78.6763489,34.6936507 77.8531421,35.2984929 77.3888871,36.1567224 C76.9294412,36.4351496 76.5434649,36.8599574 76.2939744,37.4105744 L71.1568892,48.7615978 C70.468886,50.2815524 71.0800297,52.1839933 72.5227375,53.0119161 C73.9654452,53.8398389 75.6925002,53.2783236 76.3807873,51.7592974 L81.3249675,40.8360665 Z M100.701974,34.9959316 C104.566843,34.9959316 107.699939,31.8628356 107.699939,27.9979658 C107.699939,24.133096 104.566843,21 100.701974,21 C96.8371038,21 93.7040078,24.133096 93.7040078,27.9979658 C93.7040078,31.8628356 96.8371038,34.9959316 100.701974,34.9959316 Z" id="Oval-2" fill="url(#linearGradient-5)" sketch:type="MSShapeGroup" mask="url(#mask-2)">
                    <g transform="translate(80.200001, 62.023012) rotate(-2.000000) translate(-80.200001, -62.023012) "></g>
                </path>
            </g>
        </g>
    </g>
</svg>