<?xml version="1.0" encoding="UTF-8" standalone="no"?>
<svg width="154px" height="52px" viewBox="0 0 154 52" version="1.1" xmlns="http://www.w3.org/2000/svg" xmlns:xlink="http://www.w3.org/1999/xlink" xmlns:sketch="http://www.bohemiancoding.com/sketch/ns">
    <!-- Generator: Sketch 3.3 (11970) - http://www.bohemiancoding.com/sketch -->
    <title>footer-appstore-button@3x</title>
    <desc>Created with Sketch.</desc>
    <defs></defs>
    <g id="spec" stroke="none" stroke-width="1" fill="none" fill-rule="evenodd" sketch:type="MSPage">
        <g id="post-1280" sketch:type="MSArtboardGroup" transform="translate(-869.000000, -3259.000000)">
            <g id="footer" sketch:type="MSLayerGroup" transform="translate(0.000000, 3215.000000)">
                <g id="1-hero-buttons-2" transform="translate(869.000000, 44.000000)" sketch:type="MSShapeGroup">
                    <g id="footer-appstore-button">
                        <rect id="background" opacity="0.30701959" fill="#000000" x="0" y="0" width="154.158111" height="52" rx="9.6"></rect>
                        <g id="icon" transform="translate(13.734940, 9.240000)" fill="#FFFFFF">
                            <path d="M20.1663277,15.8081941 C20.1325868,12.0528301 23.2367443,10.2258332 23.3786885,10.1407754 C21.6206743,7.5738914 18.8958104,7.22317325 17.9382686,7.19520902 C15.6497088,6.95401747 13.4297941,8.56662183 12.2639898,8.56662183 C11.074916,8.56662183 9.2796705,7.21851255 7.34480774,7.25812855 C4.8549663,7.29657938 2.52568473,8.74023313 1.24818665,10.9820328 C-1.38825293,15.5530205 0.578023719,22.2702633 3.10393295,25.9650382 C4.36746931,27.7757226 5.84392201,29.7949736 7.77645782,29.7238978 C9.66710844,29.6469961 10.3733392,28.5167749 12.6549182,28.5167749 C14.9155546,28.5167749 15.5787366,29.7238978 17.5496672,29.6772907 C19.5787716,29.6469961 20.8562697,27.8607805 22.0755939,26.0337836 C23.5357579,23.9620997 24.1221505,21.9172148 24.1454201,21.8123489 C24.098881,21.7972017 20.2058859,20.3092712 20.1663277,15.8081941" id="Fill-2"></path>
                            <path d="M16.4432003,4.76465071 C17.4600794,3.49111273 18.1558389,1.75849519 17.9627016,0.000243764087 C16.4909028,0.0654936514 14.6502817,1.01977325 13.5903539,2.26534699 C12.6525912,3.36294331 11.8148876,5.16197592 12.0312943,6.85381228 C13.6845956,6.977321 15.382109,6.01838069 16.4432003,4.76465071" id="Fill-3"></path>
                        </g>
                        <g id="App-Store" transform="translate(47.229561, 21.995000)" fill="#FFFFFF">
                            <path d="M14.0564722,16.7090634 L11.4142153,16.7090634 L9.9668495,12.1543882 L4.93597362,12.1543882 L3.55725301,16.7090634 L0.984804687,16.7090634 L5.97030495,1.20289376 L9.0488659,1.20289376 L14.0564722,16.7090634 L14.0564722,16.7090634 Z M9.53054551,10.2434987 L8.22163354,6.19567532 C8.08317974,5.78087246 7.82256082,4.80678486 7.44094026,3.27341251 L7.39440117,3.27341251 C7.24082217,3.93290244 6.99532846,4.90699005 6.65908351,6.19567532 L5.37227761,10.2434987 L9.53054551,10.2434987 L9.53054551,10.2434987 Z" id="Fill-4"></path>
                            <path d="M26.8523957,10.9810554 C26.8523957,12.8826236 26.3369752,14.3857014 25.3049708,15.4891236 C24.3811699,16.4713674 23.2328178,16.9619067 21.863405,16.9619067 C20.3846253,16.9619067 19.321207,16.4340817 18.6754771,15.3749363 L18.6754771,21.2416002 L16.1949435,21.2416002 L16.1949435,9.20299602 C16.1949435,8.00869005 16.1635296,6.78408948 16.1030288,5.52802915 L18.2845488,5.52802915 L18.4230026,7.30142787 L18.4695417,7.30142787 C19.296774,5.96497036 20.552166,5.29732419 22.2368812,5.29732419 C23.5539375,5.29732419 24.6534235,5.81815811 25.5330124,6.86099113 C26.4114378,7.90615451 26.8523957,9.27873249 26.8523957,10.9810554 L26.8523957,10.9810554 Z M24.3253229,11.0719392 C24.3253229,9.98366431 24.0809927,9.08647836 23.5900053,8.38038137 C23.0536422,7.64515496 22.3334498,7.27579399 21.4305914,7.27579399 C20.8186023,7.27579399 20.2624602,7.48086506 19.7656554,7.88634651 C19.2676871,8.29299313 18.9419134,8.82547881 18.7894979,9.48613392 C18.7127084,9.79257536 18.6743137,10.0430883 18.6743137,10.2411683 L18.6743137,12.1077812 C18.6743137,12.9187441 18.9232978,13.6050331 19.4212661,14.1666482 C19.9192344,14.7259329 20.5661278,15.0067405 21.3619462,15.0067405 C22.2962185,15.0067405 23.0233918,14.6443705 23.5434662,13.9254566 C24.064704,13.2042123 24.3253229,12.2534282 24.3253229,11.0719392 L24.3253229,11.0719392 Z" id="Fill-5"></path>
                            <path d="M39.6936947,10.9810554 C39.6936947,12.8826236 39.1782742,14.3857014 38.1462699,15.4891236 C37.2213054,16.4713674 36.0741168,16.9619067 34.7035405,16.9619067 C33.2259243,16.9619067 32.1625061,16.4340817 31.5156127,15.3749363 L31.5156127,21.2416002 L29.0350791,21.2416002 L29.0350791,9.20299602 C29.0350791,8.00869005 29.0036652,6.78408948 28.9431644,5.52802915 L31.1246843,5.52802915 L31.2631381,7.30142787 L31.3096772,7.30142787 C32.1357461,5.96497036 33.3911381,5.29732419 35.0770167,5.29732419 C36.3929096,5.29732419 37.4935591,5.81815811 38.3743114,6.86099113 C39.2515733,7.90615451 39.6936947,9.27873249 39.6936947,10.9810554 L39.6936947,10.9810554 Z M37.1654585,11.0719392 C37.1654585,9.98366431 36.9199648,9.08647836 36.4289774,8.38038137 C35.8937778,7.64515496 35.1747488,7.27579399 34.2718904,7.27579399 C33.6599014,7.27579399 33.1037592,7.48086506 32.6046275,7.88634651 C32.1078227,8.29299313 31.782049,8.82547881 31.6296335,9.48613392 C31.5540075,9.79257536 31.5132857,10.0430883 31.5132857,10.2411683 L31.5132857,12.1077812 C31.5132857,12.9187441 31.7634334,13.6050331 32.2590747,14.1666482 C32.757043,14.7247677 33.4039364,15.0067405 34.2020818,15.0067405 C35.1375176,15.0067405 35.8646909,14.6443705 36.3836018,13.9254566 C36.9048396,13.2042123 37.1654585,12.2534282 37.1654585,11.0719392 L37.1654585,11.0719392 Z" id="Fill-6"></path>
                            <path d="M54.0510047,12.3606245 C54.0510047,13.6796044 53.5914311,14.752732 52.674611,15.5811725 C51.6670397,16.4853495 50.2603956,16.9386032 48.4570058,16.9386032 C46.7909063,16.9386032 45.4552343,16.6170145 44.447663,15.9726718 L45.0212573,13.9021531 C46.1091086,14.5464957 47.3039998,14.8692496 48.6047674,14.8692496 C49.5402031,14.8692496 50.2673765,14.6571875 50.7862873,14.2365588 C51.3075252,13.8135997 51.5693076,13.2508194 51.5693076,12.5470527 C51.5693076,11.9166922 51.3529008,11.3877021 50.9247411,10.9577519 C50.495418,10.5301321 49.7856969,10.1293114 48.7897603,9.76344594 C46.0788582,8.75090751 44.7222436,7.26880293 44.7222436,5.3217929 C44.7222436,4.0494201 45.2015963,3.00775225 46.1568111,2.19329384 C47.1131895,1.3800006 48.3813797,0.973353982 49.959055,0.973353982 C51.368026,0.973353982 52.5419746,1.21920624 53.4739199,1.70974557 L52.8514596,3.73482243 C51.9741977,3.25943039 50.9840785,3.02173437 49.8764481,3.02173437 C49.0015131,3.02173437 48.3138981,3.23729204 47.8240741,3.66607701 C47.4110397,4.0494201 47.2004503,4.5166559 47.2004503,5.07127994 C47.2004503,5.68299763 47.4389631,6.19101461 47.9148253,6.58833982 C48.3266963,6.95653561 49.0783027,7.35619117 50.1649905,7.78497615 C51.4983355,8.32328772 52.4768199,8.9501527 53.1050976,9.67023182 C53.7368658,10.3903109 54.0510047,11.2886621 54.0510047,12.3606245" id="Fill-7"></path>
                            <path d="M62.2732988,7.39231165 L59.5391271,7.39231165 L59.5391271,12.8208692 C59.5391271,14.2016035 60.0208067,14.8902228 60.9864929,14.8902228 C61.4297777,14.8902228 61.7974366,14.8529372 62.0883059,14.7748703 L62.1569511,16.6612912 C61.6682906,16.8442239 61.0248876,16.9362728 60.2290692,16.9362728 C59.2482578,16.9362728 58.4838532,16.6356573 57.930038,16.0379217 C57.3785498,15.439021 57.1028056,14.4358039 57.1028056,13.02361 L57.1028056,7.38765094 L55.4751009,7.38765094 L55.4751009,5.52336844 L57.1028056,5.52336844 L57.1028056,3.47615323 L59.5391271,2.73976165 L59.5391271,5.52336844 L62.2732988,5.52336844 L62.2732988,7.39231165" id="Fill-8"></path>
                            <path d="M74.5852157,11.0264973 C74.5852157,12.7451328 74.0953917,14.1561616 73.1145803,15.2595838 C72.0895568,16.3944657 70.7259614,16.9619067 69.0261211,16.9619067 C67.3856181,16.9619067 66.08136,16.4177693 65.108693,15.3294944 C64.136026,14.2412195 63.6496924,12.8686415 63.6496924,11.2129256 C63.6496924,9.48030804 64.1534781,8.06112299 65.1540686,6.95770079 C66.156986,5.85427859 67.5089467,5.30081972 69.208787,5.30081972 C70.8481265,5.30081972 72.1628559,5.84728753 73.159956,6.93439726 C74.1116804,7.9912124 74.5852157,9.35330379 74.5852157,11.0264973 L74.5852157,11.0264973 Z M72.0139308,11.083591 C72.0139308,10.0594008 71.7928701,9.18085766 71.3495853,8.44563125 C70.8295109,7.55776672 70.083722,7.11499962 69.1203627,7.11499962 C68.1279166,7.11499962 67.363512,7.55776672 66.8457646,8.44563125 C66.4001528,9.18085766 66.1802556,10.0745481 66.1802556,11.130198 C66.1802556,12.1555534 66.4001528,13.0364269 66.8457646,13.7681578 C67.3821276,14.6571875 68.1302436,15.1011198 69.1005836,15.1011198 C70.0476542,15.1011198 70.7911162,14.6467009 71.3298061,13.7471846 C71.7847258,12.9944805 72.0139308,12.1101115 72.0139308,11.083591 L72.0139308,11.083591 Z" id="Fill-9"></path>
                            <path d="M82.6516038,7.7127352 C82.4061101,7.66729331 82.1431642,7.64515496 81.8697471,7.64515496 C80.9971391,7.64515496 80.3223223,7.97256957 79.8476235,8.63438986 C79.4345891,9.21697814 79.2286536,9.95336972 79.2286536,10.8423994 L79.2286536,16.7090634 L76.74812,16.7090634 L76.74812,9.04919271 C76.74812,7.76167261 76.7236869,6.58600947 76.6759844,5.52919433 L78.8365617,5.52919433 L78.927313,7.66845849 L78.9959581,7.66845849 C79.258904,6.93323208 79.670775,6.34015721 80.2362249,5.89739012 C80.7900401,5.49656938 81.3857405,5.29732419 82.0291435,5.29732419 C82.2583485,5.29732419 82.4654475,5.31480184 82.6492769,5.34276608 L82.6516038,7.7127352" id="Fill-10"></path>
                            <path d="M93.7453599,10.5895561 C93.7453599,11.0346536 93.716273,11.4098404 93.6546087,11.7162819 L86.2141713,11.7162819 C86.2409313,12.8208692 86.6027728,13.6667874 87.2927148,14.2493757 C87.9198291,14.7690444 88.7319362,15.030044 89.7267093,15.030044 C90.8285223,15.030044 91.8337667,14.8552675 92.7377886,14.5010538 L93.12639,16.2255151 C92.0699526,16.6857599 90.8215415,16.9164648 89.3834835,16.9164648 C87.6522293,16.9164648 86.2932878,16.4061175 85.3043321,15.3877532 C84.3188668,14.3682237 83.8232255,12.9968109 83.8232255,11.281671 C83.8232255,9.59682569 84.2816355,8.19278794 85.2031096,7.07305327 C86.1664688,5.87758212 87.4683999,5.27984654 89.1065759,5.27984654 C90.715665,5.27984654 91.9338258,5.87758212 92.7598947,7.07305327 C93.4160959,8.02034181 93.7453599,9.19483978 93.7453599,10.5895561 L93.7453599,10.5895561 Z M91.3800106,9.94521349 C91.3974627,9.20765672 91.2345759,8.57380068 90.898331,8.03548911 C90.4690078,7.34337423 89.8081527,6.99848197 88.9227465,6.99848197 C88.1106393,6.99848197 87.4509477,7.33521799 86.9483255,8.0110204 C86.5352911,8.54816679 86.2897974,9.19483978 86.2141713,9.94288313 L91.3800106,9.94521349 L91.3800106,9.94521349 Z" id="Fill-11"></path>
                        </g>
                        <g id="Available-on-the" transform="translate(49.173183, 9.660000)" fill="#FFFFFF">
                            <path d="M6.39086899,7.98815781 L5.09126484,7.98815781 L4.3803802,5.74985364 L1.90799093,5.74985364 L1.22968366,7.98815781 L-0.0350161769,7.98815781 L2.41526703,0.366737941 L3.92778753,0.366737941 L6.39086899,7.98815781 L6.39086899,7.98815781 Z M4.16630038,4.81072134 L3.52289743,2.82059977 C3.45541574,2.61669388 3.33092367,2.14246702 3.13894992,1.38510225 L3.11568037,1.38510225 C3.03656391,1.71251687 2.92370661,2.1879089 2.75383893,2.82059977 L2.12207075,4.81072134 L4.16630038,4.81072134 L4.16630038,4.81072134 Z" id="Fill-12"></path>
                            <path d="M12.5177405,2.49318516 L10.43977,7.98815781 L9.25418664,7.98815781 L7.24369786,2.49318516 L8.5537733,2.49318516 L9.49153601,5.3991355 C9.64976893,5.88501412 9.78473229,6.3487544 9.88595482,6.78919113 L9.91969566,6.78919113 C10.0104469,6.39419628 10.1454103,5.93045601 10.3141145,5.3991355 L11.2402424,2.49318516 L12.5177405,2.49318516" id="Fill-13"></path>
                            <path d="M16.9412812,7.98815781 L16.85053,7.35546694 L16.8167891,7.35546694 C16.4444764,7.8646491 15.902296,8.11283171 15.2135174,8.11283171 C14.2315426,8.11283171 13.5311292,7.42304718 13.5311292,6.49556664 C13.5311292,5.13930113 14.7050778,4.43786484 16.7376727,4.43786484 L16.7376727,4.33649448 C16.7376727,3.61291983 16.3537252,3.25054992 15.5974649,3.25054992 C15.0552845,3.25054992 14.5805858,3.38687558 14.1640609,3.65836172 L13.9162402,2.85555507 C14.4246798,2.53862705 15.056448,2.38016304 15.8022369,2.38016304 C17.235641,2.38016304 17.9593239,3.1375278 17.9593239,4.6534225 L17.9593239,6.67733418 C17.9593239,7.23195823 17.9825934,7.66190838 18.0384403,7.98932299 L16.9412812,7.98815781 L16.9412812,7.98815781 Z M16.7714135,5.25115808 C15.4159625,5.25115808 14.7388187,5.57973787 14.7388187,6.35924098 C14.7388187,6.93600338 15.0890253,7.21797611 15.5741954,7.21797611 C16.1954923,7.21797611 16.7714135,6.74374925 16.7714135,6.09940661 L16.7714135,5.25115808 L16.7714135,5.25115808 Z" id="Fill-14"></path>
                            <path d="M20.6748799,1.58784298 C20.2688263,1.58784298 19.9523605,1.27091495 19.9523605,0.852616566 C19.9523605,0.434318182 20.2792976,0.129041923 20.6981494,0.129041923 C21.1158378,0.129041923 21.4544097,0.434318182 21.4427749,0.852616566 C21.4427749,1.29421848 21.1274726,1.58784298 20.6748799,1.58784298 L20.6748799,1.58784298 Z M20.0884873,2.49318516 L21.3078115,2.49318516 L21.3078115,7.98815781 L20.0884873,7.98815781 L20.0884873,2.49318516 Z" id="Fill-15"></path>
                            <path d="M23.4742063,-0.0282569121 L24.6935305,-0.0282569121 L24.6935305,7.98815781 L23.4742063,7.98815781 L23.4742063,-0.0282569121 Z" id="Fill-16"></path>
                            <path d="M29.8756584,7.98815781 L29.7837437,7.35546694 L29.7511664,7.35546694 C29.3788536,7.8646491 28.8366732,8.11283171 28.1478946,8.11283171 C27.1659198,8.11283171 26.4655064,7.42304718 26.4655064,6.49556664 C26.4655064,5.13930113 27.639455,4.43786484 29.6720499,4.43786484 L29.6720499,4.33649448 C29.6720499,3.61291983 29.2881024,3.25054992 28.5318421,3.25054992 C27.9896617,3.25054992 27.514963,3.38687558 27.0984381,3.65836172 L26.849454,2.85438989 C27.3578935,2.53746187 27.9896617,2.37899786 28.7354507,2.37899786 C30.1688547,2.37899786 30.8937011,3.13636262 30.8937011,4.65225733 L30.8937011,6.67616901 C30.8937011,7.23079305 30.9169706,7.6607432 30.9704906,7.98815781 L29.8756584,7.98815781 L29.8756584,7.98815781 Z M29.7057907,5.25115808 C28.3503397,5.25115808 27.6731959,5.57973787 27.6731959,6.35924098 C27.6731959,6.93600338 28.0234026,7.21797611 28.5085726,7.21797611 C29.1298695,7.21797611 29.7057907,6.74374925 29.7057907,6.09940661 L29.7057907,5.25115808 L29.7057907,5.25115808 Z" id="Fill-17"></path>
                            <path d="M35.8326622,8.11283171 C35.0542959,8.11283171 34.4795381,7.78425192 34.1060619,7.13990928 L34.0827924,7.13990928 L34.0129837,7.98815781 L32.975162,7.98815781 C33.0077393,7.54772107 33.0193741,7.04902551 33.0193741,6.50721841 L33.0193741,-0.0282569121 L34.2410253,-0.0282569121 L34.2410253,3.29715699 L34.2631314,3.29715699 C34.6249728,2.68660447 35.2113654,2.38132821 36.0130012,2.38132821 C37.3347114,2.38132821 38.2608394,3.51271465 38.2608394,5.16260466 C38.2608394,6.86842314 37.2323254,8.11283171 35.8326622,8.11283171 L35.8326622,8.11283171 Z M35.5848416,3.34026852 C34.8832648,3.34026852 34.2410253,3.95082104 34.2410253,4.79906957 L34.2410253,5.76034023 C34.2410253,6.517705 34.81811,7.13990928 35.5627355,7.13990928 C36.4760652,7.13990928 37.0205726,6.39419628 37.0205726,5.20688137 C37.0194091,4.09879846 36.4539591,3.34026852 35.5848416,3.34026852 L35.5848416,3.34026852 Z" id="Fill-18"></path>
                            <path d="M40.0653927,-0.0282569121 L41.2835534,-0.0282569121 L41.2835534,7.98815781 L40.0653927,7.98815781 L40.0653927,-0.0282569121 Z" id="Fill-19"></path>
                            <path d="M47.920028,5.53429598 L44.2597284,5.53429598 C44.2841614,6.57479865 44.970613,7.16204763 45.9863287,7.16204763 C46.5296726,7.16204763 47.0264774,7.07116386 47.4662718,6.90221326 L47.6559186,7.7504618 C47.1370078,7.97650605 46.5273457,8.08952817 45.816461,8.08952817 C44.0991685,8.08952817 43.0834528,7.00358362 43.0834528,5.31990349 C43.0834528,3.63505819 44.1236015,2.36851127 45.6803342,2.36851127 C47.0788339,2.36851127 47.9619132,3.40901394 47.9619132,4.98083711 C47.9654036,5.1952296 47.9549323,5.38748373 47.920028,5.53429598 L47.920028,5.53429598 Z M46.8030898,4.66390909 C46.8030898,3.81566056 46.3726032,3.2167598 45.5930734,3.2167598 C44.89266,3.2167598 44.3411718,3.82731232 44.2597284,4.66390909 L46.8030898,4.66390909 L46.8030898,4.66390909 Z" id="Fill-20"></path>
                            <path d="M55.3104358,8.11283171 C53.7071641,8.11283171 52.6681789,6.91386503 52.6681789,5.28611337 C52.6681789,3.5896163 53.7292702,2.38016304 55.4023505,2.38016304 C56.9811893,2.38016304 58.0446075,3.52203606 58.0446075,5.19639478 C58.0446075,6.91386503 56.9486119,8.11283171 55.3104358,8.11283171 L55.3104358,8.11283171 Z M55.3569749,3.27268828 C54.4762226,3.27268828 53.9119361,4.09763328 53.9119361,5.25115808 C53.9119361,6.38254452 54.4878574,7.20748952 55.3453402,7.20748952 C56.2028229,7.20748952 56.7787442,6.32545086 56.7787442,5.22785455 C56.7787442,4.10928505 56.2144577,3.27268828 55.3569749,3.27268828 L55.3569749,3.27268828 Z" id="Fill-21"></path>
                            <path d="M64.5996387,7.98815781 L63.3826414,7.98815781 L63.3826414,4.83285969 C63.3826414,3.86110244 63.0091652,3.37405864 62.275011,3.37405864 C61.5524916,3.37405864 61.0545233,3.99626292 61.0545233,4.71983757 L61.0545233,7.98815781 L59.837526,7.98815781 L59.837526,4.06384316 C59.837526,3.57796454 59.8235643,3.05713062 59.790987,2.49201998 L60.863713,2.49201998 L60.9207234,3.34026852 L60.9556277,3.34026852 C61.2802379,2.75301953 61.9480739,2.37899786 62.6938628,2.37899786 C63.8433784,2.37899786 64.5996387,3.26103651 64.5996387,4.69653403 L64.5996387,7.98815781" id="Fill-22"></path>
                            <path d="M72.5776026,3.40901394 L71.2361132,3.40901394 L71.2361132,6.07726826 C71.2361132,6.75656619 71.4722991,7.09563257 71.9458344,7.09563257 C72.1599142,7.09563257 72.3425801,7.07232904 72.4880148,7.03853892 L72.5217556,7.96601946 C72.2844063,8.05690323 71.966777,8.10234512 71.5746851,8.10234512 C70.6124894,8.10234512 70.0400585,7.57102461 70.0400585,6.17980379 L70.0400585,3.40901394 L69.2407496,3.40901394 L69.2407496,2.49318516 L70.0400585,2.49318516 L70.0400585,1.48647261 L71.2361132,1.1241027 L71.2361132,2.49201998 L72.5776026,2.49201998 L72.5776026,3.40901394" id="Fill-23"></path>
                            <path d="M79.0349016,7.98815781 L77.8144139,7.98815781 L77.8144139,4.85616322 C77.8144139,3.87275421 77.4409377,3.37522382 76.707947,3.37522382 C76.0761788,3.37522382 75.4897863,3.80517397 75.4897863,4.67556086 L75.4897863,7.98815781 L74.2692986,7.98815781 L74.2692986,-0.0282569121 L75.4897863,-0.0282569121 L75.4897863,3.27268828 L75.5130558,3.27268828 C75.8958398,2.67378753 76.4508185,2.37899786 77.1617031,2.37899786 C78.324017,2.37899786 79.0349016,3.28317487 79.0349016,4.71983757 L79.0349016,7.98815781" id="Fill-24"></path>
                            <path d="M85.2653226,5.53429598 L81.6061865,5.53429598 C81.629456,6.57479865 82.3159076,7.16204763 83.3327868,7.16204763 C83.8772942,7.16204763 84.3729355,7.07116386 84.810403,6.90221326 L85.0012132,7.7504618 C84.4834658,7.97650605 83.8726403,8.08952817 83.1605921,8.08952817 C81.4444631,8.08952817 80.4287474,7.00358362 80.4287474,5.31990349 C80.4287474,3.63505819 81.4677327,2.36851127 83.0244653,2.36851127 C84.4241285,2.36851127 85.3060443,3.40901394 85.3060443,4.98083711 C85.3106982,5.1952296 85.2990634,5.38748373 85.2653226,5.53429598 L85.2653226,5.53429598 Z M84.1472209,4.66390909 C84.1472209,3.81566056 83.7190612,3.2167598 82.9395315,3.2167598 C82.2391181,3.2167598 81.6864664,3.82731232 81.6061865,4.66390909 L84.1472209,4.66390909 L84.1472209,4.66390909 Z" id="Fill-25"></path>
                        </g>
                    </g>
                </g>
            </g>
        </g>
    </g>
</svg>