<?xml version="1.0" encoding="UTF-8" standalone="no"?>
<svg width="154px" height="52px" viewBox="0 0 154 52" version="1.1" xmlns="http://www.w3.org/2000/svg" xmlns:xlink="http://www.w3.org/1999/xlink" xmlns:sketch="http://www.bohemiancoding.com/sketch/ns">
    <!-- Generator: Sketch 3.3 (11970) - http://www.bohemiancoding.com/sketch -->
    <title>footer-play-store-button@3x</title>
    <desc>Created with Sketch.</desc>
    <defs>
        <linearGradient x1="58.9170878%" y1="9.59026547%" x2="90.8103723%" y2="60.8514694%" id="linearGradient-1">
            <stop stop-color="#FF177B" offset="0%"></stop>
            <stop stop-color="#FFEC73" offset="100%"></stop>
        </linearGradient>
        <linearGradient x1="37.1029741%" y1="-44.0352456%" x2="0%" y2="101.060094%" id="linearGradient-2">
            <stop stop-color="#064AA2" offset="0%"></stop>
            <stop stop-color="#63FFD4" offset="100%"></stop>
        </linearGradient>
        <path id="path-3" d="M14.5077708,13.335 L0.521862258,0 C0.195571278,0.0762496196 0,0.321786149 0,0.735 L0,13.335 L0,26.25 C0,26.600581 0.140482353,26.8091682 0.313117355,26.88 L14.5077708,13.335 Z"></path>
        <path id="path-5" d="M0.577635822,13.4174458 L8.66149902,8.94999892 C10.6521712,7.84030682 12.2320182,6.95961977 12.2320182,6.95961977 L18.1107285,3.7741905 L14.1969527,-0.0516636906 L0.00246491757,13.4950218 C0.160675594,13.5462104 0.439526592,13.5182306 0.657074943,13.4102134"></path>
        <linearGradient x1="78.6453125%" y1="50%" x2="2.49516972%" y2="100%" id="linearGradient-7">
            <stop stop-color="#FF4521" offset="0%"></stop>
            <stop stop-color="#8A33DB" offset="100%"></stop>
        </linearGradient>
        <linearGradient x1="0%" y1="-24.1863374%" x2="64.2244373%" y2="100%" id="linearGradient-8">
            <stop stop-color="#00A3B5" offset="0%"></stop>
            <stop stop-color="#D6FFA1" offset="100%"></stop>
        </linearGradient>
        <path id="path-9" d="M0.744073694,0.120421797 C0.474833142,-0.0246437971 0.207321956,-0.0661418556 -0.00907675963,-0.00749090265 L13.9884434,13.3469073 L17.8609415,9.66021163 L12.0237064,6.4073686 C12.0237064,6.4073686 6.52192312,3.34079791 3.19991405,1.48914189 L0.744073694,0.120421797 Z"></path>
    </defs>
    <g id="spec" stroke="none" stroke-width="1" fill="none" fill-rule="evenodd" sketch:type="MSPage">
        <g id="post-1280" sketch:type="MSArtboardGroup" transform="translate(-1053.000000, -3259.000000)">
            <g id="footer" sketch:type="MSLayerGroup" transform="translate(0.000000, 3215.000000)">
                <g id="1-hero-buttons-2" transform="translate(869.000000, 44.000000)">
                    <g id="footer-play-store-button" transform="translate(184.000000, 0.000000)">
                        <g id="Play-Store">
                            <rect id="background" opacity="0.30701959" fill="#000000" sketch:type="MSShapeGroup" x="0" y="0" width="154" height="52" rx="9.6"></rect>
                            <g id="icon" transform="translate(6.262347, 18.795000)">
                                <path d="M12.5434033,6.4073686 C12.5434033,6.4073686 1.90728745,0.479036047 1.28261184,0.130741279 C0.656896823,-0.217553488 0.0342999924,-0.0062755814 0.0342999924,0.72169186 L0.0342999924,13.3774477 L0.0342999924,26.2905023 C0.0342999924,26.835432 0.479160499,27.0718122 1.02276341,26.7695384 C1.56532692,26.4672645 12.5434033,20.3475267 12.5434033,20.3475267 C12.5434033,20.3475267 14.0347558,19.5167266 14.7804321,19.1013265 C15.9805009,18.4327942 18.3806383,17.0957297 18.3806383,17.0957297 C18.3806383,17.0957297 23.3333494,14.3344738 23.992325,13.9683983 C24.6502612,13.6012767 24.5868582,13.0981843 24.0318219,12.8084616 C23.4757463,12.5197849 18.3806383,9.66021163 18.3806383,9.66021163 L12.5434033,6.4073686 Z" id="orange" fill="url(#linearGradient-1)" sketch:type="MSShapeGroup"></path>
                                <g id="blue">
                                    <mask id="mask-4" sketch:name="Clip 2" fill="white">
                                        <use xlink:href="#path-3"></use>
                                    </mask>
                                    <use id="Clip-2" fill="url(#linearGradient-2)" sketch:type="MSShapeGroup" xlink:href="#path-3"></use>
                                    <path d="M18.3695515,9.66 L12.5246942,6.405 C12.5042248,6.45236466 1.87225701,0.513143632 1.25246942,0.21 C0.622354022,-0.184725317 0,0.0269406402 0,0.735 L0,13.44 C0,13.4352456 0,25.825039 0,26.355 C0,26.9179479 0.444687014,27.1547623 0.939352064,26.88 C1.53042984,26.5491043 12.5042248,20.4181265 12.5246942,20.37 L18.3695515,17.115 C18.3391834,17.1603568 23.2899629,14.3940295 23.9012914,14.07 C24.6063611,13.6594857 24.5429828,13.1554693 24.0056638,12.915 C23.4323043,12.5760075 18.3391834,9.71118213 18.3695515,9.66" id="Fill-1" sketch:type="MSShapeGroup" mask="url(#mask-4)"></path>
                                </g>
                                <g id="red" transform="translate(0.311385, 13.387907)">
                                    <mask id="mask-6" sketch:name="Clip 8" fill="white">
                                        <use xlink:href="#path-5"></use>
                                    </mask>
                                    <g id="Clip-8"></g>
                                    <path d="M12.2133091,-6.98290698 C12.1928398,-6.93554231 1.56087198,-12.8747633 0.941084386,-13.177907 C0.31096899,-13.5726323 -0.311385032,-13.3609663 -0.311385032,-12.652907 L-0.311385032,0.0520930233 C-0.311385032,0.0473385865 -0.311385032,12.4371321 -0.311385032,12.967093 C-0.311385032,13.530041 0.133301982,13.7668553 0.627967032,13.492093 C1.21904481,13.1611973 12.1928398,7.03021949 12.2133091,6.98209302 L18.0581664,3.72709302 C18.0277983,3.77244987 22.9785778,1.0061225 23.5899064,0.682093023 C24.2949761,0.271578759 24.2315978,-0.232437704 23.6942788,-0.472906977 C23.1209192,-0.81189946 18.0277983,-3.67672485 18.0581664,-3.72790698 L12.2133091,-6.98290698 Z" id="Fill-7" fill="url(#linearGradient-7)" sketch:type="MSShapeGroup" mask="url(#mask-6)"></path>
                                </g>
                                <g id="green" transform="translate(0.519697, 0.000000)">
                                    <mask id="mask-10" sketch:name="Clip 5" fill="white">
                                        <use xlink:href="#path-9"></use>
                                    </mask>
                                    <use id="Clip-5" fill="url(#linearGradient-8)" sketch:type="MSShapeGroup" xlink:href="#path-9"></use>
                                    <path d="M17.8498546,9.66 L12.0049973,6.405 C11.9845279,6.45236466 1.35256015,0.513143632 0.732772564,0.21 C0.102657168,-0.184725317 -0.519696854,0.0269406402 -0.519696854,0.735 L-0.519696854,13.44 C-0.519696854,13.4352456 -0.519696854,25.825039 -0.519696854,26.355 C-0.519696854,26.9179479 -0.0750098401,27.1547623 0.41965521,26.88 C1.01073299,26.5491043 11.9845279,20.4181265 12.0049973,20.37 L17.8498546,17.115 C17.8194865,17.1603568 22.770266,14.3940295 23.3815945,14.07 C24.0866642,13.6594857 24.023286,13.1554693 23.485967,12.915 C22.9126074,12.5760075 17.8194865,9.71118213 17.8498546,9.66" id="Fill-4" sketch:type="MSShapeGroup" mask="url(#mask-10)"></path>
                                </g>
                            </g>
                            <g id="Google-play" transform="translate(36.217241, 21.105000)" fill="#FFFFFF" sketch:type="MSShapeGroup">
                                <path d="M69.367525,15.5263291 L68.2117361,16.6299387 C67.94463,16.7784876 67.6789561,16.9509492 67.4139983,17.0734115 C66.6112477,17.4422475 65.7948912,17.535 65.0694797,17.535 C64.2975215,17.535 63.0873088,17.484276 61.8527487,16.5806639 C60.1376839,15.3582152 59.3879249,13.2567919 59.3879249,11.425655 C59.3879249,7.63439738 62.4378041,5.775 64.9255432,5.775 C65.7948912,5.775 66.6878706,5.99528714 67.4139983,6.45977417 C68.6213466,7.26773523 68.9335671,8.31772229 69.1068639,8.8800342 L63.4260252,11.2024693 L61.5655917,11.3488444 C62.1678336,14.4575017 64.2459622,16.2654504 66.5425019,16.2654504 C67.6896976,16.2654504 68.5411431,15.8864696 69.3224106,15.4958947 C69.3224106,15.4958947 69.479237,15.413287 69.367525,15.5263291 L69.367525,15.5263291 Z M65.8965384,9.29014127 C66.3524599,9.11943724 66.5896241,8.97207735 66.5896241,8.62921028 C66.5896241,7.64583835 65.5099962,6.51 64.2215224,6.51 C63.2672022,6.51 61.4753739,7.27597962 61.4753739,9.93575266 C61.4753739,10.3508407 61.5235147,10.7929203 61.5475851,11.235 L65.8965384,9.29014127 L65.8965384,9.29014127 Z" id="Fill-1"></path>
                                <path d="M57.5119471,15.3933297 C57.5119471,16.3410008 57.6789664,16.4884644 58.4705238,16.5629192 C58.8830758,16.6120737 59.2942003,16.6337595 59.7010423,16.6829141 L58.8102725,17.22 L54.5655549,17.22 C55.122286,16.4884644 55.2179295,16.4154555 55.2179295,15.928247 L55.2179295,15.3839325 L55.2086507,0.880444967 L53.3343227,0.880444967 L55.1387024,0 L58.5832976,0 C57.8367069,0.4380539 57.6133007,0.70478969 57.5176572,1.55848879 L57.5119471,15.3933297" id="Fill-2"></path>
                                <path d="M50.9263578,6.9717648 C51.4786135,7.43216166 52.6308683,8.40933052 52.6308683,10.2624821 C52.6308683,12.0686544 51.6268318,12.9200634 50.6142443,13.7259386 C50.3035559,14.0432294 49.9401361,14.3872622 49.9401361,14.9192121 C49.9401361,15.4591124 50.3035559,15.7518294 50.5650757,15.9701023 L51.4337205,16.6502176 C52.4897758,17.5543879 53.4524822,18.3833913 53.4524822,20.0674176 C53.4524822,22.3614515 51.2634119,24.675 47.1268387,24.675 C43.6422835,24.675 41.9577255,22.9916965 41.9577255,21.1869697 C41.9577255,20.3088187 42.3888412,19.0649522 43.8111668,18.2128204 C45.3019009,17.2884129 47.3213752,17.1648213 48.4030838,17.0925455 C48.0653171,16.6502176 47.679807,16.1869297 47.679807,15.4309248 C47.679807,15.0175072 47.8023721,14.7710467 47.9206617,14.480498 C47.6577168,14.5057945 47.392634,14.5318138 47.1517793,14.5318138 C44.6014269,14.5318138 43.1598614,12.6020499 43.1598614,10.7004735 C43.1598614,9.57875301 43.6643737,8.33416369 44.7004766,7.43216166 C46.0714959,6.28731294 47.7061727,6.09 49.0052206,6.09 L53.9605574,6.09 L52.4199422,6.9717648 L50.9263578,6.9717648 L50.9263578,6.9717648 Z M49.2345839,17.7714888 C49.0355991,17.745 48.9163519,17.745 48.6764207,17.745 C48.4566035,17.745 47.1470391,17.7935628 46.1327193,18.1423322 C45.5961068,18.3432057 44.0451745,18.9369966 44.0451745,20.70071 C44.0451745,22.4607444 45.7196642,23.73 48.3100588,23.73 C50.6375347,23.73 51.8731084,22.5873021 51.8731084,21.0487435 C51.8731084,19.7824312 51.0735773,19.1143244 49.2345839,17.7714888 L49.2345839,17.7714888 Z M49.9145817,13.0741048 C50.4680182,12.5128166 50.5162665,11.7375328 50.5162665,11.2972926 C50.5162665,9.54858079 49.4895708,6.825 47.499328,6.825 C46.8784857,6.825 46.2058475,7.14131004 45.8241182,7.63054585 C45.4189743,8.13707424 45.297644,8.79419214 45.297644,9.4260917 C45.297644,11.054476 46.2328098,13.755 48.2897488,13.755 C48.8900146,13.755 49.5356905,13.4588646 49.9145817,13.0741048 L49.9145817,13.0741048 Z" id="Fill-3"></path>
                                <path d="M35.9392826,17.535 C32.1087739,17.535 30.059266,14.4951139 30.059266,11.742696 C30.059266,8.52669008 32.6357902,5.775 36.3006244,5.775 C39.8433451,5.775 42.062098,8.60165016 42.062098,11.5694873 C42.062098,14.4681865 39.8690532,17.535 35.9392826,17.535 L35.9392826,17.535 Z M38.9349372,15.5468664 C39.5196522,14.7586403 39.6615316,13.7748174 39.6615316,12.8158089 C39.6615316,10.6467274 38.646879,6.51 35.6480648,6.51 C34.8505307,6.51 34.0472641,6.82747996 33.4682816,7.34566565 C32.5238522,8.2076055 32.35546,9.29068657 32.35546,10.3533322 C32.35546,12.7866154 33.536355,16.8 36.4670958,16.8 C37.4129583,16.8 38.3781681,16.3336329 38.9349372,15.5468664 L38.9349372,15.5468664 Z" id="Fill-4"></path>
                                <path d="M23.1010633,17.535 C19.2682442,17.535 17.2214545,14.4951139 17.2214545,11.742696 C17.2214545,8.52669008 19.7997665,5.775 23.4646988,5.775 C27.0067523,5.775 29.2242864,8.60165016 29.2242864,11.5694873 C29.2242864,14.4681865 27.0331856,17.535 23.1010633,17.535 L23.1010633,17.535 Z M26.098203,15.5468664 C26.6789034,14.7586403 26.82372,13.7748174 26.82372,12.8158089 C26.82372,10.6467274 25.805702,6.51 22.8082842,6.51 C22.0074911,6.51 21.2124334,6.82747996 20.6317329,7.34566565 C19.6854063,8.2076055 19.5176484,9.29068657 19.5176484,10.3533322 C19.5176484,12.7866154 20.7041413,16.8 23.6313015,16.8 C24.5754774,16.8 25.5397269,16.3336329 26.098203,15.5468664 L26.098203,15.5468664 Z" id="Fill-5"></path>
                                <path d="M15.6323823,16.8084429 L12.387858,17.5607122 C11.0732662,17.7705633 9.89278717,17.955 8.64274164,17.955 C2.38462501,17.955 0,13.291076 0,9.6408275 C0,5.18312401 3.37863711,1.05 9.16484901,1.05 C10.389076,1.05 11.5666863,1.23225828 12.6395883,1.52851875 C14.3400232,2.0121204 15.1353763,2.60827198 15.6323823,2.95753984 L13.7476321,4.76995683 L12.9529962,4.95003673 L13.5195687,4.03584081 C12.7521856,3.27703642 11.3414917,1.87633435 8.66425705,1.87633435 C5.08480941,1.87633435 2.38462501,4.63126627 2.38462501,8.6532926 C2.38462501,12.9730317 5.46778377,17.0364473 10.412743,17.0364473 C11.8657506,17.0364473 12.6137698,16.740913 13.2929397,16.4649841 L13.2929397,12.7617282 L9.86696867,12.9483433 L11.6828696,11.9608084 L16.4908473,11.9608084 L15.9027594,12.5337239 C15.7442625,12.670236 15.7227471,12.7167083 15.6782819,12.8996927 C15.6546149,13.1088177 15.6323823,13.7739515 15.6323823,14.0077649 L15.6323823,16.8084429" id="Fill-6"></path>
                                <path d="M76.3695747,15.6386762 L76.3695747,21.84 L75.1481651,21.84 L75.1481651,6.05999394 L76.3695747,6.05999394 L76.3695747,7.8572595 C77.1652439,6.69563864 78.6192007,5.775 80.3078514,5.775 C83.3366895,5.775 85.3766653,8.09174818 85.3766653,11.7591512 C85.3766653,15.402023 83.3366895,17.767112 80.3078514,17.767112 C78.7136507,17.767112 77.285453,16.9381043 76.3695747,15.6386762 L76.3695747,15.6386762 Z M84.1241959,11.8536988 C84.1241959,9.06046761 82.6899433,6.93 80.1467844,6.93 C78.5674547,6.93 77.0570726,8.18990692 76.4006345,9.28867991 L76.4006345,14.3931986 C77.0570726,15.494159 78.5674547,16.8 80.1467844,16.8 C82.6899433,16.8 84.1241959,14.6513046 84.1241959,11.8536988 L84.1241959,11.8536988 Z" id="Fill-7"></path>
                                <path d="M87.0466246,1.68 L88.299094,1.68 L88.299094,17.535 L87.0466246,17.535 L87.0466246,1.68 Z" id="Fill-8"></path>
                                <path d="M101.915865,20.7481151 C102.177052,20.8657466 102.622858,20.9379132 102.905513,20.9379132 C103.652578,20.9379132 104.172805,20.6297619 104.640078,19.54149 L105.530976,17.5056711 L100.719416,5.985 L102.08188,5.985 L106.209345,15.9685232 L110.296738,5.985 L111.678523,5.985 L105.810052,19.9232512 C105.201093,21.3593659 104.242932,22.05 102.92698,22.05 C102.53198,22.05 102.011038,21.9792768 101.706201,21.8847386 L101.915865,20.7481151" id="Fill-9"></path>
                                <path d="M98.4688847,17.5193563 C98.3868446,17.1210335 98.3249547,16.7698709 98.2796168,16.4767517 C98.242195,16.1843581 98.2206055,15.8854346 98.2206055,15.5814323 C97.7996103,16.2046733 97.2030205,16.7234362 96.4409113,17.1319166 C95.6780824,17.5432992 94.9533949,17.745 93.9595584,17.745 C92.7627806,17.745 91.8337125,17.4482531 91.170915,16.8460529 C90.5102764,16.2445781 90.1777981,15.4297939 90.1777981,14.398798 C90.1777981,13.3692532 90.6592439,12.5334283 91.6192569,11.8942254 C92.5792699,11.2521203 93.8199463,10.9328816 95.3556792,10.9328816 L98.2206055,10.9328816 L98.2206055,9.50573948 C98.2206055,8.68369984 97.9428206,8.03724148 97.3879706,7.56854104 C96.8309615,7.09911504 96.0494217,6.86186265 95.0361547,6.86186265 C94.1099652,6.86186265 93.3586507,7.07879985 92.786529,7.50106558 C92.2194449,7.93203782 91.9337439,8.4660371 91.9337439,9.10959328 L90.6765155,9.10959328 L90.6506081,9.04792217 C90.6052702,8.18017335 90.9989187,7.41907928 91.8358715,6.76173779 C92.6692261,6.10512183 93.760935,5.775 95.1045214,5.775 C96.4437899,5.775 97.5275826,6.10004304 98.3443853,6.74867802 C99.1604683,7.39078313 99.5699491,8.31875197 99.5699491,9.53185901 L99.5699491,15.1983459 C99.5699491,15.6053752 99.5893796,15.9986192 99.6397551,16.3817057 C99.6915699,16.7655176 99.7743297,17.1486041 99.8844361,17.5193563 L98.4688847,17.5193563 L98.4688847,17.5193563 Z M94.1073479,16.695 C95.1499489,16.695 95.8991836,16.4587135 96.664956,15.9912456 C97.4256953,15.5266947 97.9434006,14.9206637 98.2144769,14.1870088 L98.2144769,11.97 L95.3383361,11.97 C94.2396504,11.97 93.3300708,12.2164964 92.6146308,12.7138648 C91.8977527,13.2097747 91.53464,13.8099714 91.53464,14.5078916 C91.53464,15.1664308 91.7647312,15.6929704 92.2220376,16.0918861 C92.6807821,16.4951775 93.3077807,16.695 94.1073479,16.695 L94.1073479,16.695 Z" id="Fill-10"></path>
                            </g>
                            <g id="Get-it-on" transform="translate(35.799751, 8.400000)" fill="#FFFFFF" sketch:type="MSShapeGroup">
                                <path d="M0.00443280682,3.70765575 C0.00443280682,1.4459488 1.79971957,-0.00891891892 4.03214464,-0.00891891892 C5.52833677,-0.00891891892 6.50686512,0.659297385 7.11655802,1.47757636 L6.02371225,2.07042487 C5.60958123,1.53141051 4.88413295,1.11217712 4.03214464,1.11217712 C2.5136642,1.11217712 1.38558854,2.18885998 1.38558854,3.70765575 C1.38558854,5.20424494 2.5136642,6.30313439 4.03214464,6.30313439 C4.81511111,6.30313439 5.50532949,5.9693627 5.85043868,5.65712467 L5.85043868,4.54746839 L3.54899177,4.54746839 L3.54899177,3.43781211 L7.18557986,3.43781211 L7.18557986,6.1200983 C6.43784328,6.90674972 5.35578218,7.43432432 4.03214464,7.43432432 C1.79971957,7.43432432 0.00443280682,5.9592688 0.00443280682,3.70765575" id="Fill-1"></path>
                                <path d="M8.92646399,7.32486486 L8.92646399,0.100540541 L14.2579216,0.100540541 L14.2579216,1.21697167 L10.2915795,1.21697167 L10.2915795,3.07904346 L14.1762917,3.07904346 L14.1762917,4.19479796 L10.2915795,4.19479796 L10.2915795,6.20911036 L14.2579216,6.20911036 L14.2579216,7.32486486 L8.92646399,7.32486486" id="Fill-2"></path>
                                <path d="M17.8836719,7.32486486 L17.8836719,1.21697167 L15.5635847,1.21697167 L15.5635847,0.100540541 L21.547874,0.100540541 L21.547874,1.21697167 L19.2277868,1.21697167 L19.2277868,7.32486486 L17.8836719,7.32486486" id="Fill-3"></path>
                                <path d="M26.3353053,0.100540541 L27.6409684,0.100540541 L27.6409684,7.32486486 L26.3353053,7.32486486 L26.3353053,0.100540541 Z" id="Fill-4"></path>
                                <path d="M31.3762416,7.32486486 L31.3762416,1.21697167 L29.0554368,1.21697167 L29.0554368,0.100540541 L35.039726,0.100540541 L35.039726,1.21697167 L32.7203564,1.21697167 L32.7203564,7.32486486 L31.3762416,7.32486486" id="Fill-5"></path>
                                <path d="M39.5007416,3.71303965 C39.5007416,1.56598914 41.1428468,-0.00891891892 43.4724973,-0.00891891892 C45.7890516,-0.00891891892 47.4435254,1.56598914 47.4435254,3.71303965 C47.4435254,5.85941627 45.7890516,7.43432432 43.4724973,7.43432432 C41.1428468,7.43432432 39.5007416,5.85941627 39.5007416,3.71303965 L39.5007416,3.71303965 Z M46.0290571,3.65797297 C46.0290571,2.18475422 45.0229122,1.08567568 43.4724949,1.08567568 C41.9105128,1.08567568 40.9152099,2.18475422 40.9152099,3.65797297 C40.9152099,5.11985414 41.9105128,6.23027027 43.4724949,6.23027027 C45.0229122,6.23027027 46.0290571,5.11985414 46.0290571,3.65797297 L46.0290571,3.65797297 Z" id="Fill-6"></path>
                                <path d="M54.3061948,7.32486486 L50.3097184,2.15883356 L50.3097184,7.32486486 L48.9667991,7.32486486 L48.9667991,0.100540541 L50.3448696,0.100540541 L54.2602831,5.10485849 L54.2602831,0.100540541 L55.6039198,0.100540541 L55.6039198,7.32486486 L54.3061948,7.32486486" id="Fill-7"></path>
                            </g>
                        </g>
                    </g>
                </g>
            </g>
        </g>
    </g>
</svg>