<?xml version="1.0" encoding="UTF-8" standalone="no"?>
<svg width="155px" height="28px" viewBox="0 0 155 28" version="1.1" xmlns="http://www.w3.org/2000/svg" xmlns:xlink="http://www.w3.org/1999/xlink" xmlns:sketch="http://www.bohemiancoding.com/sketch/ns">
    <!-- Generator: Sketch 3.3 (11970) - http://www.bohemiancoding.com/sketch -->
    <title>MDonCall</title>
    <desc>Created with Sketch.</desc>
    <defs></defs>
    <g id="spec" stroke="none" stroke-width="1" fill="none" fill-rule="evenodd" sketch:type="MSPage">
        <g id="ABOUT-APP-1280" sketch:type="MSArtboardGroup" transform="translate(-132.000000, -61.000000)" fill="#FFFFFF">
            <g id="navigation" sketch:type="MSLayerGroup" transform="translate(0.000000, 39.000000)">
                <path d="M145.696,38.2 C145.900001,38.5840019 146.088999,38.9829979 146.263,39.397 C146.437001,39.8110021 146.607999,40.2279979 146.776,40.648 C146.944001,40.2159978 147.117999,39.7900021 147.298,39.37 C147.478001,38.9499979 147.669999,38.5480019 147.874,38.164 L155.578,23.746 C155.674,23.5659991 155.772999,23.4220005 155.875,23.314 C155.977001,23.2059995 156.090999,23.1280002 156.217,23.08 C156.343001,23.0319998 156.483999,23.0020001 156.64,22.99 C156.796001,22.9779999 156.981999,22.972 157.198,22.972 L160.852,22.972 L160.852,49 L156.586,49 L156.586,32.188 C156.586,31.8759984 156.595,31.5340019 156.613,31.162 C156.631,30.7899981 156.658,30.4120019 156.694,30.028 L148.828,44.788 C148.647999,45.1240017 148.414001,45.3849991 148.126,45.571 C147.837999,45.7570009 147.502002,45.85 147.118,45.85 L146.452,45.85 C146.067998,45.85 145.732001,45.7570009 145.444,45.571 C145.155999,45.3849991 144.922001,45.1240017 144.742,44.788 L136.768,29.974 C136.816,30.370002 136.849,30.7569981 136.867,31.135 C136.885,31.5130019 136.894,31.8639984 136.894,32.188 L136.894,49 L132.628,49 L132.628,22.972 L136.282,22.972 C136.498001,22.972 136.683999,22.9779999 136.84,22.99 C136.996001,23.0020001 137.136999,23.0319998 137.263,23.08 C137.389001,23.1280002 137.505999,23.2059995 137.614,23.314 C137.722001,23.4220005 137.824,23.5659991 137.92,23.746 L145.696,38.2 Z M189.22,35.986 C189.22,37.8940095 188.902003,39.645992 188.266,41.242 C187.629997,42.838008 186.736006,44.2119942 185.584,45.364 C184.431994,46.5160058 183.046008,47.4099968 181.426,48.046 C179.805992,48.6820032 178.01201,49 176.044,49 L166.108,49 L166.108,22.972 L176.044,22.972 C178.01201,22.972 179.805992,23.2929968 181.426,23.935 C183.046008,24.5770032 184.431994,25.4709943 185.584,26.617 C186.736006,27.7630057 187.629997,29.133992 188.266,30.73 C188.902003,32.326008 189.22,34.0779905 189.22,35.986 L189.22,35.986 Z M184.27,35.986 C184.27,34.5579929 184.078002,33.2770057 183.694,32.143 C183.309998,31.0089943 182.764004,30.0490039 182.056,29.263 C181.347996,28.4769961 180.487005,27.8740021 179.473,27.454 C178.458995,27.0339979 177.316006,26.824 176.044,26.824 L170.986,26.824 L170.986,45.148 L176.044,45.148 C177.316006,45.148 178.458995,44.9380021 179.473,44.518 C180.487005,44.0979979 181.347996,43.4950039 182.056,42.709 C182.764004,41.9229961 183.309998,40.9630057 183.694,39.829 C184.078002,38.6949943 184.27,37.4140071 184.27,35.986 L184.27,35.986 Z M192.766,45.364 C192.766,44.7399969 192.837999,44.0140041 192.982,43.186 C193.126001,42.3579959 193.335999,41.5060044 193.612,40.63 C193.888001,39.7539956 194.229998,38.8960042 194.638,38.056 C195.046002,37.2159958 195.507997,36.4660033 196.024,35.806 C196.540003,35.1459967 197.109997,34.612002 197.734,34.204 C198.358003,33.795998 199.017996,33.592 199.714,33.592 C200.938006,33.592 201.795998,33.9279966 202.288,34.6 C202.780002,35.2720034 203.026,36.1839942 203.026,37.336 C203.026,37.8160024 202.954001,38.4399962 202.81,39.208 C202.665999,39.9760038 202.456001,40.7919957 202.18,41.656 C201.903999,42.5200043 201.562002,43.3839957 201.154,44.248 C200.745998,45.1120043 200.278003,45.8979965 199.75,46.606 C199.221997,47.3140035 198.634003,47.8839978 197.986,48.316 C197.337997,48.7480022 196.642004,48.964 195.898,48.964 C194.985995,48.964 194.236003,48.6700029 193.648,48.082 C193.059997,47.4939971 192.766,46.5880061 192.766,45.364 L192.766,45.364 Z M190.39,43.348 C190.39,44.1640041 190.521999,44.9379963 190.786,45.67 C191.050001,46.4020037 191.427998,47.0439972 191.92,47.596 C192.412002,48.1480028 192.999997,48.5919983 193.684,48.928 C194.368003,49.2640017 195.141996,49.432 196.006,49.432 C197.014005,49.432 198.075994,49.1620027 199.192,48.622 C200.308006,48.0819973 201.321995,47.3440047 202.234,46.408 C203.146005,45.4719953 203.901997,44.3860062 204.502,43.15 C205.102003,41.9139938 205.402,40.600007 205.402,39.208 C205.402,38.5359966 205.294001,37.8400036 205.078,37.12 C204.861999,36.3999964 204.526002,35.740003 204.07,35.14 C203.613998,34.539997 203.038003,34.0480019 202.342,33.664 C201.645996,33.2799981 200.830005,33.088 199.894,33.088 C198.861995,33.088 197.782006,33.3519974 196.654,33.88 C195.525994,34.4080026 194.500005,35.1279954 193.576,36.04 C192.651995,36.9520046 191.890003,38.0379937 191.29,39.298 C190.689997,40.5580063 190.39,41.9079928 190.39,43.348 L190.39,43.348 Z M212.782,34.06 L207.598,49 L210.082,49 L212.782,41.476 C213.166002,40.3959946 213.663997,39.3940046 214.276,38.47 C214.888003,37.5459954 215.541996,36.7420034 216.238,36.058 C216.934003,35.3739966 217.629996,34.834002 218.326,34.438 C219.022003,34.041998 219.633997,33.844 220.162,33.844 C220.690003,33.844 221.055999,33.9879986 221.26,34.276 C221.464001,34.5640014 221.566,34.8639984 221.566,35.176 C221.566,35.5600019 221.470001,36.0399971 221.278,36.616 L218.254,45.22 C218.133999,45.6040019 218.032,45.9639983 217.948,46.3 C217.864,46.6360017 217.822,46.9599984 217.822,47.272 C217.822,48.0400038 218.085997,48.5919983 218.614,48.928 C219.142003,49.2640017 219.789996,49.432 220.558,49.432 C221.254003,49.432 221.853997,49.2940014 222.358,49.018 C222.862002,48.7419986 223.287998,48.4120019 223.636,48.028 C223.984002,47.6439981 224.265999,47.254002 224.482,46.858 C224.698001,46.461998 224.865999,46.1440012 224.986,45.904 L224.59,45.724 C224.469999,45.9880013 224.302001,46.3059981 224.086,46.678 C223.869999,47.0500019 223.612001,47.4039983 223.312,47.74 C223.011998,48.0760017 222.682002,48.3639988 222.322,48.604 C221.961998,48.8440012 221.566002,48.964 221.134,48.964 C220.749998,48.964 220.498001,48.8440012 220.378,48.604 C220.257999,48.3639988 220.198,48.1000014 220.198,47.812 C220.198,47.4279981 220.257999,47.038002 220.378,46.642 C220.498001,46.245998 220.629999,45.844002 220.774,45.436 L223.114,38.776 C223.306001,38.2239972 223.467999,37.750002 223.6,37.354 C223.732001,36.957998 223.798,36.556002 223.798,36.148 C223.798,35.355996 223.504003,34.6900027 222.916,34.15 C222.327997,33.6099973 221.530005,33.34 220.522,33.34 C218.45799,33.34 216.262012,34.8879845 213.934,37.984 L213.862,37.984 L215.338,33.556 L209.65,33.556 L209.506,34.06 L212.782,34.06 Z M247.558,42.862 C247.822001,42.862 248.049999,42.963999 248.242,43.168 L250.15,45.238 C249.093995,46.5460065 247.795008,47.5479965 246.253,48.244 C244.710992,48.9400035 242.860011,49.288 240.7,49.288 C238.76799,49.288 237.031008,48.9580033 235.489,48.298 C233.946992,47.6379967 232.630005,46.7200059 231.538,45.544 C230.445994,44.3679941 229.609003,42.9640082 229.027,41.332 C228.444997,39.6999918 228.154,37.9180097 228.154,35.986 C228.154,34.0299902 228.477997,32.2390081 229.126,30.613 C229.774003,28.9869919 230.685994,27.5860059 231.862,26.41 C233.038006,25.2339941 234.444992,24.3190033 236.083,23.665 C237.721008,23.0109967 239.52999,22.684 241.51,22.684 C243.44201,22.684 245.130993,22.9929969 246.577,23.611 C248.023007,24.2290031 249.261995,25.0479949 250.294,26.068 L248.674,28.318 C248.577999,28.4620007 248.455001,28.5879995 248.305,28.696 C248.154999,28.8040005 247.948001,28.858 247.684,28.858 C247.407999,28.858 247.126001,28.7500011 246.838,28.534 C246.549998,28.3179989 246.184002,28.0840013 245.74,27.832 C245.295998,27.5799987 244.735003,27.3460011 244.057,27.13 C243.378997,26.9139989 242.518005,26.806 241.474,26.806 C240.249994,26.806 239.125005,27.0189979 238.099,27.445 C237.072995,27.8710021 236.191004,28.479996 235.453,29.272 C234.714996,30.064004 234.139002,31.0269943 233.725,32.161 C233.310998,33.2950057 233.104,34.5699929 233.104,35.986 C233.104,37.4500073 233.310998,38.7519943 233.725,39.892 C234.139002,41.0320057 234.699996,41.9919961 235.408,42.772 C236.116003,43.5520039 236.949995,44.1489979 237.91,44.563 C238.870005,44.9770021 239.901994,45.184 241.006,45.184 C241.666003,45.184 242.262997,45.1480004 242.797,45.076 C243.331003,45.0039996 243.822998,44.8900008 244.273,44.734 C244.723002,44.5779992 245.148998,44.3770012 245.551,44.131 C245.953002,43.8849988 246.351998,43.5820018 246.748,43.222 C246.868001,43.1139995 246.993999,43.0270003 247.126,42.961 C247.258001,42.8949997 247.401999,42.862 247.558,42.862 L247.558,42.862 Z M268.024,49 L266.026,49 C265.605998,49 265.276001,48.9370006 265.036,48.811 C264.795999,48.6849994 264.616001,48.4300019 264.496,48.046 L264.1,46.732 C263.631998,47.1520021 263.173002,47.5209984 262.723,47.839 C262.272998,48.1570016 261.808002,48.4239989 261.328,48.64 C260.847998,48.8560011 260.338003,49.0179995 259.798,49.126 C259.257997,49.2340005 258.658003,49.288 257.998,49.288 C257.217996,49.288 256.498003,49.1830011 255.838,48.973 C255.177997,48.7629989 254.611002,48.4480021 254.137,48.028 C253.662998,47.6079979 253.294001,47.0860031 253.03,46.462 C252.765999,45.8379969 252.634,45.1120041 252.634,44.284 C252.634,43.5879965 252.816998,42.9010034 253.183,42.223 C253.549002,41.5449966 254.157996,40.9330027 255.01,40.387 C255.862004,39.8409973 256.995993,39.3880018 258.412,39.028 C259.828007,38.6679982 261.585989,38.4640002 263.686,38.416 L263.686,37.336 C263.686,36.0999938 263.425003,35.185003 262.903,34.591 C262.380997,33.996997 261.622005,33.7 260.626,33.7 C259.905996,33.7 259.306002,33.7839992 258.826,33.952 C258.345998,34.1200008 257.929002,34.308999 257.575,34.519 C257.220998,34.729001 256.894001,34.9179992 256.594,35.086 C256.293998,35.2540008 255.964002,35.338 255.604,35.338 C255.303998,35.338 255.046001,35.2600008 254.83,35.104 C254.613999,34.9479992 254.440001,34.7560011 254.308,34.528 L253.498,33.106 C255.622011,31.1619903 258.183985,30.19 261.184,30.19 C262.264005,30.19 263.226996,30.3669982 264.073,30.721 C264.919004,31.0750018 265.635997,31.5669969 266.224,32.197 C266.812003,32.8270031 267.258998,33.5799956 267.565,34.456 C267.871001,35.3320044 268.024,36.2919948 268.024,37.336 L268.024,49 Z M259.384,46.228 C259.840002,46.228 260.259998,46.1860004 260.644,46.102 C261.028002,46.0179996 261.390998,45.8920008 261.733,45.724 C262.075002,45.5559992 262.404998,45.3490012 262.723,45.103 C263.041001,44.8569988 263.361998,44.5660017 263.686,44.23 L263.686,41.116 C262.389993,41.1760003 261.307004,41.2869992 260.437,41.449 C259.566996,41.6110008 258.868003,41.8179987 258.34,42.07 C257.811997,42.3220013 257.437001,42.6159983 257.215,42.952 C256.992999,43.2880017 256.882,43.653998 256.882,44.05 C256.882,44.8300039 257.112998,45.3879983 257.575,45.724 C258.037002,46.0600017 258.639996,46.228 259.384,46.228 L259.384,46.228 Z M277.132,22.252 L277.132,49 L272.686,49 L272.686,22.252 L277.132,22.252 Z M286.888,22.252 L286.888,49 L282.442,49 L282.442,22.252 L286.888,22.252 Z" id="MDonCall" sketch:type="MSShapeGroup"></path>
            </g>
        </g>
    </g>
</svg>