<?xml version="1.0" encoding="UTF-8" standalone="no"?>
<svg width="155px" height="28px" viewBox="0 0 155 28" version="1.1" xmlns="http://www.w3.org/2000/svg" xmlns:xlink="http://www.w3.org/1999/xlink" xmlns:sketch="http://www.bohemiancoding.com/sketch/ns">
    <!-- Generator: Sketch 3.3 (11970) - http://www.bohemiancoding.com/sketch -->
    <title>MDonCall</title>
    <desc>Created with Sketch.</desc>
    <defs></defs>
    <g id="spec" stroke="none" stroke-width="1" fill="none" fill-rule="evenodd" sketch:type="MSPage">
        <g id="HOME-1280" sketch:type="MSArtboardGroup" transform="translate(-562.000000, -59.000000)" fill="#F94045">
            <path d="M575.696,75.2 C575.900001,75.5840019 576.088999,75.9829979 576.263,76.397 C576.437001,76.8110021 576.607999,77.2279979 576.776,77.648 C576.944001,77.2159978 577.117999,76.7900021 577.298,76.37 C577.478001,75.9499979 577.669999,75.5480019 577.874,75.164 L585.578,60.746 C585.674,60.5659991 585.772999,60.4220005 585.875,60.314 C585.977001,60.2059995 586.090999,60.1280002 586.217,60.08 C586.343001,60.0319998 586.483999,60.0020001 586.64,59.99 C586.796001,59.9779999 586.981999,59.972 587.198,59.972 L590.852,59.972 L590.852,86 L586.586,86 L586.586,69.188 C586.586,68.8759984 586.595,68.5340019 586.613,68.162 C586.631,67.7899981 586.658,67.4120019 586.694,67.028 L578.828,81.788 C578.647999,82.1240017 578.414001,82.3849991 578.126,82.571 C577.837999,82.7570009 577.502002,82.85 577.118,82.85 L576.452,82.85 C576.067998,82.85 575.732001,82.7570009 575.444,82.571 C575.155999,82.3849991 574.922001,82.1240017 574.742,81.788 L566.768,66.974 C566.816,67.370002 566.849,67.7569981 566.867,68.135 C566.885,68.5130019 566.894,68.8639984 566.894,69.188 L566.894,86 L562.628,86 L562.628,59.972 L566.282,59.972 C566.498001,59.972 566.683999,59.9779999 566.84,59.99 C566.996001,60.0020001 567.136999,60.0319998 567.263,60.08 C567.389001,60.1280002 567.505999,60.2059995 567.614,60.314 C567.722001,60.4220005 567.824,60.5659991 567.92,60.746 L575.696,75.2 Z M619.22,72.986 C619.22,74.8940095 618.902003,76.645992 618.266,78.242 C617.629997,79.838008 616.736006,81.2119942 615.584,82.364 C614.431994,83.5160058 613.046008,84.4099968 611.426,85.046 C609.805992,85.6820032 608.01201,86 606.044,86 L596.108,86 L596.108,59.972 L606.044,59.972 C608.01201,59.972 609.805992,60.2929968 611.426,60.935 C613.046008,61.5770032 614.431994,62.4709943 615.584,63.617 C616.736006,64.7630057 617.629997,66.133992 618.266,67.73 C618.902003,69.326008 619.22,71.0779905 619.22,72.986 L619.22,72.986 Z M614.27,72.986 C614.27,71.5579929 614.078002,70.2770057 613.694,69.143 C613.309998,68.0089943 612.764004,67.0490039 612.056,66.263 C611.347996,65.4769961 610.487005,64.8740021 609.473,64.454 C608.458995,64.0339979 607.316006,63.824 606.044,63.824 L600.986,63.824 L600.986,82.148 L606.044,82.148 C607.316006,82.148 608.458995,81.9380021 609.473,81.518 C610.487005,81.0979979 611.347996,80.4950039 612.056,79.709 C612.764004,78.9229961 613.309998,77.9630057 613.694,76.829 C614.078002,75.6949943 614.27,74.4140071 614.27,72.986 L614.27,72.986 Z M622.766,82.364 C622.766,81.7399969 622.837999,81.0140041 622.982,80.186 C623.126001,79.3579959 623.335999,78.5060044 623.612,77.63 C623.888001,76.7539956 624.229998,75.8960042 624.638,75.056 C625.046002,74.2159958 625.507997,73.4660033 626.024,72.806 C626.540003,72.1459967 627.109997,71.612002 627.734,71.204 C628.358003,70.795998 629.017996,70.592 629.714,70.592 C630.938006,70.592 631.795998,70.9279966 632.288,71.6 C632.780002,72.2720034 633.026,73.1839942 633.026,74.336 C633.026,74.8160024 632.954001,75.4399962 632.81,76.208 C632.665999,76.9760038 632.456001,77.7919957 632.18,78.656 C631.903999,79.5200043 631.562002,80.3839957 631.154,81.248 C630.745998,82.1120043 630.278003,82.8979965 629.75,83.606 C629.221997,84.3140035 628.634003,84.8839978 627.986,85.316 C627.337997,85.7480022 626.642004,85.964 625.898,85.964 C624.985995,85.964 624.236003,85.6700029 623.648,85.082 C623.059997,84.4939971 622.766,83.5880061 622.766,82.364 L622.766,82.364 Z M620.39,80.348 C620.39,81.1640041 620.521999,81.9379963 620.786,82.67 C621.050001,83.4020037 621.427998,84.0439972 621.92,84.596 C622.412002,85.1480028 622.999997,85.5919983 623.684,85.928 C624.368003,86.2640017 625.141996,86.432 626.006,86.432 C627.014005,86.432 628.075994,86.1620027 629.192,85.622 C630.308006,85.0819973 631.321995,84.3440047 632.234,83.408 C633.146005,82.4719953 633.901997,81.3860062 634.502,80.15 C635.102003,78.9139938 635.402,77.600007 635.402,76.208 C635.402,75.5359966 635.294001,74.8400036 635.078,74.12 C634.861999,73.3999964 634.526002,72.740003 634.07,72.14 C633.613998,71.539997 633.038003,71.0480019 632.342,70.664 C631.645996,70.2799981 630.830005,70.088 629.894,70.088 C628.861995,70.088 627.782006,70.3519974 626.654,70.88 C625.525994,71.4080026 624.500005,72.1279954 623.576,73.04 C622.651995,73.9520046 621.890003,75.0379937 621.29,76.298 C620.689997,77.5580063 620.39,78.9079928 620.39,80.348 L620.39,80.348 Z M642.782,71.06 L637.598,86 L640.082,86 L642.782,78.476 C643.166002,77.3959946 643.663997,76.3940046 644.276,75.47 C644.888003,74.5459954 645.541996,73.7420034 646.238,73.058 C646.934003,72.3739966 647.629996,71.834002 648.326,71.438 C649.022003,71.041998 649.633997,70.844 650.162,70.844 C650.690003,70.844 651.055999,70.9879986 651.26,71.276 C651.464001,71.5640014 651.566,71.8639984 651.566,72.176 C651.566,72.5600019 651.470001,73.0399971 651.278,73.616 L648.254,82.22 C648.133999,82.6040019 648.032,82.9639983 647.948,83.3 C647.864,83.6360017 647.822,83.9599984 647.822,84.272 C647.822,85.0400038 648.085997,85.5919983 648.614,85.928 C649.142003,86.2640017 649.789996,86.432 650.558,86.432 C651.254003,86.432 651.853997,86.2940014 652.358,86.018 C652.862002,85.7419986 653.287998,85.4120019 653.636,85.028 C653.984002,84.6439981 654.265999,84.254002 654.482,83.858 C654.698001,83.461998 654.865999,83.1440012 654.986,82.904 L654.59,82.724 C654.469999,82.9880013 654.302001,83.3059981 654.086,83.678 C653.869999,84.0500019 653.612001,84.4039983 653.312,84.74 C653.011998,85.0760017 652.682002,85.3639988 652.322,85.604 C651.961998,85.8440012 651.566002,85.964 651.134,85.964 C650.749998,85.964 650.498001,85.8440012 650.378,85.604 C650.257999,85.3639988 650.198,85.1000014 650.198,84.812 C650.198,84.4279981 650.257999,84.038002 650.378,83.642 C650.498001,83.245998 650.629999,82.844002 650.774,82.436 L653.114,75.776 C653.306001,75.2239972 653.467999,74.750002 653.6,74.354 C653.732001,73.957998 653.798,73.556002 653.798,73.148 C653.798,72.355996 653.504003,71.6900027 652.916,71.15 C652.327997,70.6099973 651.530005,70.34 650.522,70.34 C648.45799,70.34 646.262012,71.8879845 643.934,74.984 L643.862,74.984 L645.338,70.556 L639.65,70.556 L639.506,71.06 L642.782,71.06 Z M677.558,79.862 C677.822001,79.862 678.049999,79.963999 678.242,80.168 L680.15,82.238 C679.093995,83.5460065 677.795008,84.5479965 676.253,85.244 C674.710992,85.9400035 672.860011,86.288 670.7,86.288 C668.76799,86.288 667.031008,85.9580033 665.489,85.298 C663.946992,84.6379967 662.630005,83.7200059 661.538,82.544 C660.445994,81.3679941 659.609003,79.9640082 659.027,78.332 C658.444997,76.6999918 658.154,74.9180097 658.154,72.986 C658.154,71.0299902 658.477997,69.2390081 659.126,67.613 C659.774003,65.9869919 660.685994,64.5860059 661.862,63.41 C663.038006,62.2339941 664.444992,61.3190033 666.083,60.665 C667.721008,60.0109967 669.52999,59.684 671.51,59.684 C673.44201,59.684 675.130993,59.9929969 676.577,60.611 C678.023007,61.2290031 679.261995,62.0479949 680.294,63.068 L678.674,65.318 C678.577999,65.4620007 678.455001,65.5879995 678.305,65.696 C678.154999,65.8040005 677.948001,65.858 677.684,65.858 C677.407999,65.858 677.126001,65.7500011 676.838,65.534 C676.549998,65.3179989 676.184002,65.0840013 675.74,64.832 C675.295998,64.5799987 674.735003,64.3460011 674.057,64.13 C673.378997,63.9139989 672.518005,63.806 671.474,63.806 C670.249994,63.806 669.125005,64.0189979 668.099,64.445 C667.072995,64.8710021 666.191004,65.479996 665.453,66.272 C664.714996,67.064004 664.139002,68.0269943 663.725,69.161 C663.310998,70.2950057 663.104,71.5699929 663.104,72.986 C663.104,74.4500073 663.310998,75.7519943 663.725,76.892 C664.139002,78.0320057 664.699996,78.9919961 665.408,79.772 C666.116003,80.5520039 666.949995,81.1489979 667.91,81.563 C668.870005,81.9770021 669.901994,82.184 671.006,82.184 C671.666003,82.184 672.262997,82.1480004 672.797,82.076 C673.331003,82.0039996 673.822998,81.8900008 674.273,81.734 C674.723002,81.5779992 675.148998,81.3770012 675.551,81.131 C675.953002,80.8849988 676.351998,80.5820018 676.748,80.222 C676.868001,80.1139995 676.993999,80.0270003 677.126,79.961 C677.258001,79.8949997 677.401999,79.862 677.558,79.862 L677.558,79.862 Z M698.024,86 L696.026,86 C695.605998,86 695.276001,85.9370006 695.036,85.811 C694.795999,85.6849994 694.616001,85.4300019 694.496,85.046 L694.1,83.732 C693.631998,84.1520021 693.173002,84.5209984 692.723,84.839 C692.272998,85.1570016 691.808002,85.4239989 691.328,85.64 C690.847998,85.8560011 690.338003,86.0179995 689.798,86.126 C689.257997,86.2340005 688.658003,86.288 687.998,86.288 C687.217996,86.288 686.498003,86.1830011 685.838,85.973 C685.177997,85.7629989 684.611002,85.4480021 684.137,85.028 C683.662998,84.6079979 683.294001,84.0860031 683.03,83.462 C682.765999,82.8379969 682.634,82.1120041 682.634,81.284 C682.634,80.5879965 682.816998,79.9010034 683.183,79.223 C683.549002,78.5449966 684.157996,77.9330027 685.01,77.387 C685.862004,76.8409973 686.995993,76.3880018 688.412,76.028 C689.828007,75.6679982 691.585989,75.4640002 693.686,75.416 L693.686,74.336 C693.686,73.0999938 693.425003,72.185003 692.903,71.591 C692.380997,70.996997 691.622005,70.7 690.626,70.7 C689.905996,70.7 689.306002,70.7839992 688.826,70.952 C688.345998,71.1200008 687.929002,71.308999 687.575,71.519 C687.220998,71.729001 686.894001,71.9179992 686.594,72.086 C686.293998,72.2540008 685.964002,72.338 685.604,72.338 C685.303998,72.338 685.046001,72.2600008 684.83,72.104 C684.613999,71.9479992 684.440001,71.7560011 684.308,71.528 L683.498,70.106 C685.622011,68.1619903 688.183985,67.19 691.184,67.19 C692.264005,67.19 693.226996,67.3669982 694.073,67.721 C694.919004,68.0750018 695.635997,68.5669969 696.224,69.197 C696.812003,69.8270031 697.258998,70.5799956 697.565,71.456 C697.871001,72.3320044 698.024,73.2919948 698.024,74.336 L698.024,86 Z M689.384,83.228 C689.840002,83.228 690.259998,83.1860004 690.644,83.102 C691.028002,83.0179996 691.390998,82.8920008 691.733,82.724 C692.075002,82.5559992 692.404998,82.3490012 692.723,82.103 C693.041001,81.8569988 693.361998,81.5660017 693.686,81.23 L693.686,78.116 C692.389993,78.1760003 691.307004,78.2869992 690.437,78.449 C689.566996,78.6110008 688.868003,78.8179987 688.34,79.07 C687.811997,79.3220013 687.437001,79.6159983 687.215,79.952 C686.992999,80.2880017 686.882,80.653998 686.882,81.05 C686.882,81.8300039 687.112998,82.3879983 687.575,82.724 C688.037002,83.0600017 688.639996,83.228 689.384,83.228 L689.384,83.228 Z M707.132,59.252 L707.132,86 L702.686,86 L702.686,59.252 L707.132,59.252 Z M716.888,59.252 L716.888,86 L712.442,86 L712.442,59.252 L716.888,59.252 Z" id="MDonCall" sketch:type="MSShapeGroup"></path>
        </g>
    </g>
</svg>