<?xml version="1.0" encoding="UTF-8" standalone="no"?>
<svg width="23px" height="22px" viewBox="0 0 23 22" version="1.1" xmlns="http://www.w3.org/2000/svg" xmlns:xlink="http://www.w3.org/1999/xlink" xmlns:sketch="http://www.bohemiancoding.com/sketch/ns">
    <!-- Generator: Sketch 3.3 (11970) - http://www.bohemiancoding.com/sketch -->
    <title>Shape Copy</title>
    <desc>Created with Sketch.</desc>
    <defs></defs>
    <g id="Page-4" stroke="none" stroke-width="1" fill="none" fill-rule="evenodd" sketch:type="MSPage">
        <g id="humburger-menu" sketch:type="MSArtboardGroup" transform="translate(-278.000000, -14.000000)" fill="#F94045">
            <path d="M300.097233,33.652825 L291.44437,25.000005 L300.097233,16.347185 C300.634256,15.810165 300.634256,14.940065 300.097233,14.402825 C299.56065,13.865805 298.690106,13.865805 298.152863,14.402825 L289.5,23.055645 L280.847137,14.402825 C280.310554,13.865805 279.44001,13.865805 278.902767,14.402825 C278.365744,14.938965 278.365744,15.809945 278.902767,16.347185 L287.55563,25.000005 L278.902767,33.652825 C278.365744,34.189845 278.365744,35.059945 278.902767,35.597185 C279.43979,36.134205 280.309894,36.134205 280.847137,35.597185 L289.5,26.944365 L298.152863,35.597185 C298.689886,36.134205 299.56065,36.134205 300.097233,35.597185 C300.634256,35.060165 300.634256,34.190065 300.097233,33.652825 L300.097233,33.652825 Z" id="Shape-Copy" sketch:type="MSShapeGroup"></path>
        </g>
    </g>
</svg>