<?xml version="1.0" encoding="UTF-8" standalone="no"?>
<svg width="46px" height="45px" viewBox="0 0 46 45" version="1.1" xmlns="http://www.w3.org/2000/svg" xmlns:xlink="http://www.w3.org/1999/xlink" xmlns:sketch="http://www.bohemiancoding.com/sketch/ns">
    <!-- Generator: Sketch 3.3 (11970) - http://www.bohemiancoding.com/sketch -->
    <title>Rectangle 29</title>
    <desc>Created with Sketch.</desc>
    <defs></defs>
    <g id="spec" stroke="none" stroke-width="1" fill="none" fill-rule="evenodd" sketch:type="MSPage">
        <g id="blog-1280-copy" sketch:type="MSArtboardGroup" transform="translate(-617.000000, -422.000000)" fill="#3D5E96">
            <g id="subscribe" sketch:type="MSLayerGroup" transform="translate(338.000000, 299.000000)">
                <g id="facebook" transform="translate(279.312500, 123.000000)" sketch:type="MSShapeGroup">
                    <path d="M30.2158302,45 L41.9950833,45 C43.6532394,45 45,43.654653 45,41.9950833 L45,3.0049167 C45,1.34676062 43.654653,0 41.9950833,0 L3.0049167,0 C1.34676062,0 0,1.34534703 0,3.0049167 L0,41.9950833 C0,43.6532394 1.34534703,45 3.0049167,45 L23.0070849,45 L23.0070849,28.1412818 L18,28.1412818 L18,21.5708455 L23.0070849,21.5708455 L23.0070849,15.9591 C23.0070849,11.5492636 25.9648302,7.5 32.7798962,7.5 C35.5393302,7.5 37.5802075,7.75491818 37.5802075,7.75491818 L37.4190566,13.8903273 C37.4190566,13.8903273 35.3380755,13.8708273 33.0672453,13.8708273 C30.6095094,13.8708273 30.2158302,14.9621182 30.2158302,16.7738455 C30.2158302,18.2058545 30.2158302,13.7215636 30.2158302,21.5712 L37.6144245,21.5712 L37.2924906,28.1416364 L30.2158302,28.1416364 L30.2158302,45 Z" id="Rectangle-29"></path>
                </g>
            </g>
        </g>
    </g>
</svg>