<?xml version="1.0" encoding="UTF-8" standalone="no"?>
<svg width="45px" height="45px" viewBox="0 0 45 45" version="1.1" xmlns="http://www.w3.org/2000/svg" xmlns:xlink="http://www.w3.org/1999/xlink" xmlns:sketch="http://www.bohemiancoding.com/sketch/ns">
    <!-- Generator: Sketch 3.3 (11970) - http://www.bohemiancoding.com/sketch -->
    <title>twitter</title>
    <desc>Created with Sketch.</desc>
    <defs></defs>
    <g id="spec" stroke="none" stroke-width="1" fill="none" fill-rule="evenodd" sketch:type="MSPage">
        <g id="blog-1280-copy" sketch:type="MSArtboardGroup" transform="translate(-424.000000, -422.000000)">
            <g id="subscribe" sketch:type="MSLayerGroup" transform="translate(338.000000, 299.000000)">
                <g id="twitter" transform="translate(86.000000, 123.000000)" sketch:type="MSShapeGroup">
                    <rect id="Rectangle-29-Copy" fill="#46ADE9" x="0" y="0" width="45" height="45" rx="3"></rect>
                    <path d="M39.000165,13.5099387 C37.786095,14.0205644 36.48111,14.3655184 35.111775,14.5207086 C36.50949,13.7262975 37.583145,12.4683497 38.08854,10.9693252 C36.780255,11.7050706 35.33139,12.2391626 33.789135,12.5270153 C32.554275,11.2793926 30.794715,10.5 28.847385,10.5 C25.108485,10.5 22.07694,13.3739908 22.07694,16.9189601 C22.07694,17.4220767 22.136835,17.9120521 22.25217,18.3818466 C16.62534,18.1141748 11.63673,15.5585429 8.297625,11.6748773 C7.714845,12.6229141 7.380885,13.7255153 7.380885,14.9019571 C7.380885,17.1290613 8.576145,19.0938129 10.392795,20.244911 C9.28284,20.211589 8.23905,19.9227975 7.32627,19.4420521 C7.32561,19.4688037 7.32561,19.4957117 7.32561,19.5227761 C7.32561,22.6328374 9.65937,25.2272669 12.756585,25.8170521 C12.18849,25.9637945 11.590365,26.0421718 10.97277,26.0421718 C10.536345,26.0421718 10.112295,26.0018098 9.698805,25.9270307 C10.5606,28.4771871 13.06068,30.3332117 16.02342,30.3848374 C13.706325,32.106635 10.787145,33.1327362 7.61502,33.1327362 C7.06854,33.1327362 6.52965,33.1023865 6,33.0429387 C8.996235,34.8643896 12.55512,35.9272546 16.378335,35.9272546 C28.83138,35.9272546 35.64126,26.1458926 35.64126,17.6631534 C35.64126,17.3848436 35.63466,17.1080982 35.621625,16.8326043 C36.94476,15.9277454 38.0925,14.7971411 39.000165,13.5099387 L39.000165,13.5099387 Z" id="Shape-5" fill="#FFFFFF"></path>
                </g>
            </g>
        </g>
    </g>
</svg>